<svg xmlns="http://www.w3.org/2000/svg" viewBox="0 0 744 24" width="744" height="24" style="width: 200px"><path d="M15.9 7.5c0 2.2-1.8 5-3.9 5-2.1 0-4-2.8-4-5s1.7-4 3.9-4 4 1.7 4 3.9v.1M5.289 20.19c.129.125.282.228.453.299.17.071.358.111.558.111h11.1c1 0 1.7-.9 1.4-1.9-.8-2.7-3.6-4.8-6.9-4.8-3.3 0-6.1 2-7 4.8-.06.18-.08.364-.066.543.015.179.064.354.141.515.078.16.184.308.314.432" fill="#f6edcf"/><path d="M39.895 7.502c-.002 2.193-1.799 4.985-3.896 4.984-2.096-.001-3.993-2.796-3.995-4.991.003-2.197 1.703-3.995 3.901-3.998 2.195.002 3.99 1.699 3.99 3.895.014.009.025.023.025.038 0 .012-.004.024-.009.034l-.01.013c.005.005.009.008.009.01s-.006.004-.015.009v.006M29.299 20.18c.129.122.281.222.451.29.176.075.369.119.575.123l11.055.011c.997-.002 1.696-.902 1.396-1.902-.81-2.695-3.613-4.797-6.905-4.806 0-.008.009-.015.022-.018-3.292.001-6.085 1.998-6.983 4.792-.068.181-.094.369-.079.553.014.184.069.364.155.525.077.16.183.307.313.432" fill="#f5edcf"/><path d="M63.88 7.509c-.008 2.171-1.797 4.936-3.883 4.93-2.085-.005-3.973-2.78-3.981-4.962.016-2.188 1.714-3.979 3.906-3.99 2.177.007 3.958 1.696 3.958 3.88.06.014.106.054.106.097 0 .029-.016.056-.04.078l-.042-.007c.024-.003.039-.012.039-.023 0-.017-.027-.029-.063-.03v.027M53.331 20.144c.129.113.28.205.448.265.194.087.404.143.626.159l10.909.049c.989-.009 1.682-.909 1.385-1.907-.847-2.681-3.66-4.79-6.925-4.827 0-.035.04-.066.094-.077-3.265.005-6.035 1.989-6.925 4.764-.094.187-.139.388-.125.588.014.2.09.396.203.557.077.16.182.305.31.429" fill="#f4ebcd"/><path d="M87.851 7.521c-.02 2.13-1.792 4.845-3.857 4.832-2.066-.013-3.936-2.754-3.955-4.91.039-2.169 1.733-3.948 3.915-3.974 2.143.017 3.897 1.69 3.897 3.851.147.024.258.111.258.208 0 .061-.038.117-.098.159l-.101-.045c.057-.017.093-.049.093-.084 0-.05-.064-.09-.152-.102v.065M77.393 20.077c.126.097.275.173.441.218.225.109.468.188.722.227l10.635.119c.974-.022 1.656-.921 1.363-1.918-.913-2.653-3.745-4.774-6.959-4.864 0-.086.096-.161.227-.187-3.214.012-5.942 1.973-6.819 4.712-.141.197-.222.422-.208.651.014.232.129.458.292.62.076.157.179.3.306.422" fill="#f1e8cb"/><path d="M111.805 7.54c-.037 2.065-1.785 4.7-3.817 4.675-2.033-.025-3.876-2.71-3.913-4.825.075-2.14 1.765-3.9 3.93-3.95 2.09.033 3.8 1.682 3.8 3.805.285.041.499.203.499.384 0 .111-.074.212-.189.288l-.195-.105c.11-.039.18-.108.18-.181 0-.104-.125-.187-.295-.216v.125m-10.316 12.431c.123.072.268.123.43.144.277.144.57.259.875.335l10.202.23c.95-.043 1.615-.942 1.33-1.935-1.02-2.61-3.88-4.75-7.015-4.925 0-.165.185-.309.439-.359-3.135.023-5.795 1.946-6.65 4.63-.217.211-.356.475-.342.751.013.28.19.555.433.718.074.153.175.293.298.411" fill="#ece3c7"/><path d="M135.738 7.568c-.064 1.97-1.774 4.489-3.759 4.447-1.985-.043-3.788-2.647-3.851-4.702.127-2.098 1.81-3.83 3.951-3.915 2.012.057 3.659 1.669 3.659 3.738.485.066.851.336.851.64 0 .185-.127.352-.323.478l-.332-.195c.187-.07.306-.192.306-.322 0-.181-.212-.328-.502-.382v.213M125.63 19.817c.119.034.259.049.414.034.352.196.72.363 1.099.494l9.568.391c.915-.074 1.555-.971 1.28-1.959-1.174-2.547-4.076-4.715-7.095-5.013 0-.281.315-.528.749-.613-3.019.04-5.581 1.909-6.405 4.511-.327.232-.549.554-.536.897.013.351.279.698.639.862.071.147.169.282.287.396" fill="#e4dcc1"/><path d="M159.646 7.607c-.101 1.839-1.76 4.196-3.679 4.13-1.92-.067-3.666-2.559-3.766-4.532.201-2.039 1.874-3.732 3.98-3.866 1.906.09 3.465 1.651 3.465 3.646.763.099 1.339.52 1.339.995 0 .287-.201.547-.509.741l-.522-.318c.294-.115.482-.31.482-.518 0-.289-.335-.525-.79-.613v.335m-9.82 11.995c.112-.017.245-.053.392-.116.456.267.927.507 1.408.712l8.689.616c.866-.116 1.472-1.011 1.213-1.993-1.39-2.459-4.351-4.667-7.209-5.135 0-.442.496-.831 1.179-.965-2.858.063-5.283 1.857-6.062 4.345-.481.263-.82.663-.807 1.1.012.45.403.895.925 1.061.068.14.16.267.272.375" fill="#dad2b8"/><path d="M183.523 7.659c-.149 1.664-1.741 3.809-3.573 3.71-1.832-.099-3.503-2.443-3.652-4.306.297-1.961 1.958-3.603 4.019-3.801 1.763.132 3.206 1.627 3.206 3.523 1.131.144 1.985.765 1.985 1.465 0 .422-.298.804-.755 1.087l-.774-.48c.437-.173.715-.465.715-.778 0-.431-.496-.783-1.171-.916v.496m-9.438 11.66c.104-.085.226-.188.363-.316.593.361 1.2.697 1.817 1.002l7.527.913c.802-.172 1.363-1.066 1.123-2.039-1.674-2.343-4.712-4.602-7.357-5.297 0-.654.734-1.23 1.747-1.428-2.645.092-4.89 1.788-5.611 4.125-.683.303-1.176.808-1.164 1.368.011.58.567 1.157 1.304 1.325.062.129.147.247.251.347" fill="#cdc5ad"/><path d="M207.372 7.722c-.209 1.45-1.717 3.332-3.442 3.193-1.724-.139-3.304-2.299-3.513-4.027.417-1.866 2.062-3.444 4.067-3.722 1.588.186 2.888 1.598 2.888 3.372 1.585.199 2.78 1.066 2.78 2.044 0 .589-.417 1.122-1.056 1.516l-1.085-.681c.612-.245 1.001-.657 1.001-1.097 0-.607-.695-1.103-1.64-1.293v.695m-8.968 11.248c.094-.17.204-.355.327-.563.763.477 1.538.932 2.322 1.359l6.095 1.279c.722-.241 1.227-1.132 1.01-2.095-2.023-2.199-5.157-4.522-7.539-5.495 0-.917 1.029-1.724 2.447-2.002-2.383.13-4.404 1.704-5.054 3.855-.933.352-1.615.985-1.604 1.699.01.741.768 1.478 1.77 1.65.056.116.133.223.226.313" fill="#bcb5a0"/><path d="M231.202 7.794c-.275 1.208-1.69 2.796-3.294 2.612-1.604-.183-3.082-2.138-3.357-3.714.551-1.759 2.177-3.265 4.12-3.633 1.392.245 2.531 1.566 2.531 3.202 2.094.262 3.673 1.405 3.673 2.694 0 .776-.551 1.478-1.396 1.996l-1.432-.905c.808-.327 1.322-.873 1.322-1.457 0-.804-.918-1.461-2.167-1.713v.918m-8.44 10.784c.082-.264.179-.542.287-.84.952.608 1.916 1.197 2.887 1.76l4.489 1.69c.633-.319 1.076-1.206.886-2.157-2.416-2.039-5.657-4.433-7.745-5.719 0-1.212 1.359-2.277 3.232-2.644-2.088.171-3.859 1.608-4.429 3.551-1.213.408-2.107 1.185-2.098 2.07.009.921.995 1.84 2.293 2.015.049.102.116.195.198.274" fill="#a9a491"/><path d="M255.031 7.866c-.343.965-1.663 2.256-3.145 2.028-1.483-.229-2.857-1.977-3.2-3.4.686-1.651 2.294-3.085 4.174-3.543 1.194.305 2.171 1.533 2.171 3.032 2.607.323 4.573 1.744 4.573 3.348 0 .964-.686 1.837-1.738 2.48l-1.783-1.132c1.006-.408 1.646-1.09 1.646-1.818 0-1.002-1.143-1.822-2.698-2.138v1.143m-7.908 10.317c.07-.359.153-.73.246-1.118 1.144.739 2.298 1.462 3.458 2.163l2.869 2.104c.543-.397.923-1.281.76-2.22-2.812-1.877-6.161-4.343-7.952-5.944 0-1.509 1.692-2.835 4.024-3.292-1.791.214-3.311 1.512-3.799 3.246-1.496.463-2.604 1.386-2.596 2.443.008 1.104 1.223 2.204 2.82 2.383.042.087.1.167.17.235" fill="#969281"/><path d="M278.873 7.932c-.405.741-1.638 1.758-3.008 1.487-1.37-.27-2.649-1.827-3.054-3.108.81-1.551 2.402-2.919 4.224-3.46 1.011.361 1.838 1.502 1.838 2.874 3.081.381 5.405 2.059 5.405 3.954 0 1.138-.811 2.168-2.054 2.928l-2.108-1.342c1.189-.484 1.946-1.291 1.946-2.153 0-1.186-1.351-2.156-3.189-2.531v1.351m-7.416 9.886c.059-.447.129-.905.208-1.377 1.321.862 2.651 1.709 3.986 2.538l1.371 2.486c.46-.469.782-1.351.644-2.279-3.178-1.727-6.627-4.259-8.143-6.151 0-1.783 1.999-3.351 4.756-3.891-1.517.252-2.804 1.424-3.217 2.962-1.757.516-3.063 1.573-3.057 2.79.007 1.272 1.434 2.541 3.308 2.723.035.074.084.141.144.199" fill="#858173"/><path d="M302.734 7.991c-.46.543-1.616 1.318-2.887 1.012-1.272-.307-2.466-1.696-2.927-2.853.921-1.464 2.498-2.773 4.269-3.386.85.409 1.545 1.475 1.545 2.734 3.498.432 6.136 2.337 6.136 4.487 0 1.291-.92 2.459-2.332 3.321l-2.393-1.526c1.35-.55 2.209-1.468 2.209-2.447 0-1.347-1.534-2.449-3.62-2.876v1.534m-6.984 9.505c.05-.524.109-1.057.175-1.602 1.477.968 2.961 1.924 4.45 2.865l.055 2.823c.386-.532.657-1.412.541-2.33-3.5-1.595-7.036-4.186-8.311-6.334 0-2.025 2.27-3.804 5.399-4.418-1.275.287-2.357 1.346-2.705 2.714-1.986.561-3.467 1.736-3.461 3.094.005 1.419 1.62 2.836 3.736 3.021.03.062.071.119.121.167" fill="#767267"/><path d="M326.615 8.041c-.508.374-1.597.942-2.784.603-1.187-.338-2.309-1.582-2.816-2.632 1.014-1.388 2.579-2.647 4.305-3.324.712.451 1.295 1.452 1.295 2.615 3.855.476 6.764 2.575 6.764 4.944 0 1.423-1.015 2.71-2.57 3.66l-2.638-1.685c1.488-.607 2.435-1.619 2.435-2.699 0-1.486-1.691-2.702-3.991-3.173v1.691m-6.613 9.18c.042-.591.091-1.189.147-1.798 1.61 1.06 3.227 2.111 4.848 3.148l-1.076 3.111c.324-.586.55-1.463.453-2.373-3.776-1.483-7.388-4.124-8.456-6.491 0-2.232 2.503-4.194 5.953-4.87-1.068.315-1.974 1.278-2.265 2.5-2.184.599-3.814 1.876-3.809 3.355.004 1.546 1.779 3.09 4.104 3.278.025.052.059.099.101.14" fill="#69665c"/><path d="M350.513 8.084c-.547.229-1.581.62-2.695.255-1.115-.365-2.176-1.486-2.723-2.445 1.095-1.324 2.649-2.54 4.338-3.27.594.487 1.08 1.432 1.08 2.513 4.161.513 7.3 2.778 7.3 5.334 0 1.535-1.095 2.924-2.774 3.947l-2.847-1.819c1.606-.655 2.628-1.748 2.628-2.914 0-1.605-1.825-2.917-4.307-3.426v1.825m-6.296 8.902c.035-.648.076-1.302.122-1.964 1.725 1.139 3.455 2.269 5.188 3.388l-2.04 3.358c.27-.633.459-1.508.378-2.411-4.012-1.386-7.688-4.07-8.579-6.625 0-2.409 2.701-4.526 6.424-5.256-.891.341-1.647 1.222-1.89 2.318-2.352.633-4.11 1.997-4.106 3.578.004 1.654 1.915 3.307 4.418 3.497.021.043.05.083.085.117" fill="#5d5b53"/><path d="M374.426 8.12c-.581.106-1.567.347-2.62-.041-1.053-.387-2.061-1.404-2.643-2.285 1.164-1.27 2.709-2.449 4.366-3.225.493.517.897 1.416.897 2.427 4.421.544 7.756 2.95 7.756 5.666 0 1.63-1.163 3.105-2.947 4.192l-3.025-1.934c1.706-.697 2.792-1.858 2.792-3.098 0-1.705-1.939-3.099-4.576-3.64V8.12m-6.026 8.665c.029-.695.063-1.396.101-2.104 1.822 1.205 3.648 2.403 5.477 3.592l-2.86 3.568c.224-.672.381-1.546.314-2.443-4.212-1.304-7.943-4.024-8.684-6.739 0-2.559 2.87-4.808 6.825-5.584-.74.362-1.369 1.173-1.571 2.163-2.495.661-4.361 2.098-4.358 3.767.004 1.747 2.031 3.492 4.685 3.683.018.036.042.069.071.097" fill="#54524b"/><path d="M398.353 8.152c-.611.001-1.556.113-2.557-.294-1-.407-1.964-1.334-2.574-2.15 1.221-1.222 2.758-2.371 4.388-3.185.409.543.743 1.401.743 2.352 4.642.572 8.144 3.098 8.144 5.949 0 1.712-1.222 3.261-3.095 4.402l-3.176-2.032c1.792-.732 2.932-1.953 2.932-3.254 0-1.791-2.036-3.256-4.805-3.825v2.037m-5.797 8.463c.024-.737.052-1.478.084-2.225 1.904 1.262 3.813 2.518 5.723 3.767l-3.56 3.746c.186-.706.316-1.579.26-2.47-4.384-1.234-8.161-3.986-8.773-6.836 0-2.688 3.013-5.05 7.167-5.864-.613.38-1.132 1.131-1.299 2.031-2.618.685-4.576 2.185-4.573 3.929.002 1.825 2.129 3.649 4.912 3.841.015.03.035.058.059.081" fill="#4c4a45"/><path d="M422.29 8.178c-.636-.088-1.546-.086-2.502-.509-.956-.424-1.881-1.275-2.517-2.034 1.272-1.183 2.802-2.305 4.409-3.152.335.565.61 1.389.61 2.289 4.831.595 8.476 3.223 8.476 6.191 0 1.781-1.272 3.393-3.221 4.58l-3.306-2.116c1.865-.762 3.051-2.032 3.051-3.387 0-1.864-2.119-3.389-5-3.981v2.119m-5.601 8.291c.02-.772.043-1.548.069-2.328 1.975 1.311 3.953 2.616 5.933 3.916l-4.157 3.899c.153-.734.259-1.606.214-2.493-4.53-1.174-8.347-3.953-8.85-6.919 0-2.797 3.136-5.255 7.459-6.103-.503.396-.929 1.096-1.067 1.918-2.721.706-4.758 2.259-4.756 4.067.002 1.892 2.213 3.783 5.107 3.977.012.025.028.047.048.066" fill="#45433f"/><path d="M446.236 8.201c-.657-.165-1.538-.256-2.455-.694-.917-.438-1.81-1.223-2.467-1.934 1.314-1.149 2.839-2.248 4.426-3.124.272.584.496 1.379.496 2.235 4.993.615 8.759 3.331 8.759 6.398 0 1.84-1.314 3.505-3.328 4.732l-3.417-2.187c1.928-.788 3.154-2.101 3.154-3.502 0-1.926-2.19-3.502-5.168-4.114v2.19m-5.434 8.144c.017-.803.036-1.607.057-2.416 2.036 1.352 4.074 2.7 6.113 4.043l-4.667 4.03c.124-.76.211-1.63.173-2.514-4.654-1.123-8.505-3.924-8.914-6.99 0-2.89 3.241-5.431 7.708-6.307-.409.409-.756 1.066-.868 1.822-2.811.723-4.915 2.323-4.914 4.185.002 1.949 2.286 3.898 5.274 4.093.009.02.022.038.038.054" fill="#3f3e3a"/><path d="M470.19 8.22c-.675-.23-1.53-.401-2.415-.851-.885-.45-1.75-1.18-2.425-1.849 1.351-1.12 2.87-2.2 4.44-3.1.22.6.4 1.37.4 2.189 5.131.631 9.001 3.422 9.001 6.574 0 1.891-1.35 3.602-3.42 4.863l-3.511-2.249c1.98-.809 3.241-2.159 3.241-3.598 0-1.98-2.251-3.6-5.311-4.229v2.25m-5.29 8.018c.012-.827.028-1.657.045-2.49 2.087 1.387 4.176 2.771 6.267 4.151l-5.103 4.141c.099-.78.169-1.65.139-2.53-4.76-1.08-8.641-3.9-8.97-7.05 0-2.971 3.331-5.581 7.921-6.481-.329.42-.608 1.039-.698 1.739-2.887.738-5.049 2.377-5.048 4.285.002 1.998 2.347 3.996 5.415 4.192.008.016.019.031.032.043" fill="#3a3936"/><path d="M494.151 8.237c-.691-.286-1.524-.525-2.381-.985-.857-.461-1.698-1.143-2.389-1.778 1.381-1.095 2.897-2.158 4.453-3.079.174.614.317 1.362.317 2.151 5.248.645 9.207 3.5 9.207 6.723 0 1.934-1.381 3.684-3.499 4.974l-3.591-2.301c2.026-.828 3.315-2.209 3.315-3.681 0-2.025-2.302-3.682-5.432-4.326v2.302m-5.169 7.911c.01-.85.023-1.701.036-2.555 2.131 1.418 4.264 2.833 6.398 4.245l-5.474 4.235c.079-.798.134-1.667.111-2.544-4.852-1.043-8.757-3.88-9.018-7.102 0-3.039 3.407-5.709 8.103-6.63-.262.43-.484 1.018-.555 1.67-2.951.75-5.163 2.422-5.161 4.37.001 2.04 2.399 4.08 5.535 4.277.007.012.015.024.025.034" fill="#363532"/><path d="M518.117 8.251c-.703-.334-1.518-.63-2.352-1.099-.833-.469-1.654-1.111-2.358-1.716 1.408-1.074 2.92-2.124 4.463-3.062.136.626.247 1.356.247 2.117 5.348.658 9.383 3.567 9.383 6.851 0 1.971-1.408 3.754-3.566 5.068l-3.659-2.345c2.064-.844 3.378-2.251 3.378-3.751 0-2.064-2.346-3.753-5.536-4.409v2.346m-5.065 7.82c.008-.868.018-1.737.028-2.609 2.169 1.444 4.338 2.885 6.509 4.323l-5.789 4.316c.062-.813.105-1.682.087-2.557-4.929-1.011-8.855-3.861-9.058-7.145 0-3.096 3.471-5.817 8.256-6.756-.204.438-.376 1-.432 1.61-3.006.762-5.259 2.462-5.258 4.444.001 2.075 2.443 4.15 5.638 4.347.005.01.011.019.019.027" fill="#32312f"/><path d="M542.089 8.262c-.714-.373-1.514-.717-2.327-1.194-.814-.476-1.618-1.085-2.333-1.664 1.43-1.057 2.939-2.095 4.472-3.048.104.636.188 1.351.188 2.09 5.432.667 9.53 3.622 9.53 6.957 0 2.002-1.43 3.813-3.621 5.147l-3.717-2.381c2.097-.858 3.431-2.287 3.431-3.811 0-2.096-2.383-3.811-5.623-4.478v2.382m-4.978 7.745c.006-.884.014-1.769.022-2.655 2.199 1.465 4.4 2.928 6.601 4.389l-6.053 4.384c.047-.826.08-1.694.066-2.567-4.993-.985-8.937-3.847-9.092-7.183 0-3.144 3.526-5.908 8.386-6.861-.155.445-.287.984-.329 1.56-3.052.771-5.34 2.495-5.34 4.504.001 2.105 2.481 4.21 5.725 4.408.003.008.008.015.014.021" fill="#2f2e2d"/><path d="M566.066 8.272c-.724-.406-1.51-.791-2.307-1.274-.797-.482-1.587-1.062-2.311-1.621 1.448-1.042 2.955-2.07 4.479-3.035.076.643.139 1.346.139 2.066 5.502.676 9.652 3.668 9.652 7.047 0 2.027-1.448 3.861-3.668 5.212l-3.764-2.412c2.124-.868 3.475-2.316 3.475-3.86 0-2.123-2.413-3.86-5.695-4.536v2.413m-4.906 7.681c.005-.897.01-1.794.016-2.692 2.226 1.482 4.453 2.963 6.68 4.443l-6.274 4.44c.035-.836.059-1.704.049-2.575-5.047-.963-9.006-3.835-9.12-7.213 0-3.186 3.571-5.985 8.493-6.95-.114.451-.212.971-.243 1.518-3.091.779-5.408 2.523-5.408 4.556.001 2.13 2.512 4.259 5.797 4.458.002.005.006.01.01.015" fill="#2c2c2b"/><path d="M590.047 8.28c-.731-.433-1.507-.851-2.291-1.339-.783-.488-1.562-1.045-2.293-1.587 1.463-1.029 2.968-2.049 4.485-3.024.054.65.099 1.342.099 2.047 5.559.683 9.753 3.706 9.753 7.12 0 2.048-1.463 3.901-3.706 5.267l-3.804-2.438c2.146-.878 3.511-2.34 3.511-3.901 0-2.145-2.438-3.9-5.754-4.583V8.28m-4.846 7.629c.003-.908.007-1.815.011-2.724 2.247 1.497 4.495 2.994 6.743 4.489L585.5 22.16c.025-.845.042-1.712.035-2.582-5.091-.945-9.062-3.825-9.143-7.238 0-3.219 3.608-6.047 8.582-7.022-.081.455-.151.959-.173 1.484-3.122.784-5.463 2.544-5.463 4.597 0 2.15 2.537 4.3 5.855 4.499.002.004.005.007.008.011" fill="#2a2a29"/><path d="M614.032 8.287c-.738-.455-1.505-.9-2.278-1.392-.772-.492-1.541-1.03-2.279-1.558 1.475-1.02 2.978-2.034 4.49-3.017.037.656.067 1.339.067 2.032 5.605.688 9.833 3.737 9.833 7.178 0 2.066-1.475 3.934-3.737 5.311l-3.835-2.458c2.164-.885 3.54-2.36 3.54-3.933 0-2.164-2.458-3.933-5.801-4.622v2.459m-4.799 7.586c.002-.916.005-1.832.008-2.748 2.264 1.509 4.529 3.017 6.794 4.525l-6.6 4.523c.016-.852.028-1.719.023-2.588-5.127-.93-9.107-3.817-9.162-7.258 0-3.245 3.639-6.097 8.654-7.081-.055.459-.102.952-.117 1.457-3.147.79-5.508 2.563-5.507 4.631 0 2.166 2.557 4.333 5.902 4.532.001.003.003.005.005.007" fill="#282828"/><path d="M638.02 8.292c-.743-.472-1.503-.938-2.267-1.433-.764-.495-1.526-1.019-2.268-1.536 1.484-1.013 2.986-2.021 4.493-3.011.023.66.042 1.338.042 2.02 5.641.693 9.896 3.761 9.896 7.225 0 2.078-1.484 3.959-3.76 5.344l-3.86-2.474c2.177-.89 3.563-2.375 3.563-3.958 0-2.177-2.474-3.959-5.839-4.651v2.474m-4.761 7.553c.001-.922.002-1.845.004-2.768 2.278 1.519 4.556 3.037 6.835 4.554l-6.714 4.552c.01-.857.017-1.724.014-2.592-5.154-.919-9.142-3.811-9.176-7.274 0-3.266 3.662-6.136 8.709-7.126-.034.462-.063.944-.072 1.435-3.168.794-5.543 2.577-5.543 4.657 0 2.179 2.574 4.358 5.939 4.558.001.002.002.003.004.004" fill="#272727"/><path d="M662.011 8.295c-.746-.484-1.502-.966-2.26-1.463-.757-.497-1.514-1.01-2.259-1.52 1.491-1.006 2.992-2.011 4.496-3.005.013.663.023 1.335.023 2.011 5.668.696 9.943 3.778 9.943 7.258 0 2.089-1.491 3.978-3.778 5.37l-3.878-2.486c2.187-.895 3.579-2.386 3.579-3.977 0-2.188-2.485-3.977-5.866-4.673v2.485m-4.734 7.53l.003-2.783 6.864 4.575-6.798 4.574c.005-.862.009-1.729.008-2.596-5.176-.91-9.169-3.806-9.187-7.286 0-3.281 3.679-6.165 8.75-7.159-.019.464-.035.939-.04 1.419-3.182.796-5.568 2.587-5.568 4.676 0 2.189 2.585 4.378 5.967 4.577 0 .001.001.002.001.003" fill="#262626"/><path d="M686.005 8.298c-.749-.493-1.501-.985-2.254-1.484-.754-.499-1.506-1.004-2.255-1.509 1.497-1.003 2.997-2.005 4.499-3.002.005.665.01 1.334.01 2.005 5.686.698 9.975 3.79 9.975 7.282 0 2.095-1.496 3.99-3.79 5.387l-3.891-2.494c2.195-.898 3.591-2.394 3.591-3.99 0-2.195-2.494-3.991-5.885-4.689v2.494m-4.715 7.513c.001-.931.001-1.862.001-2.793 2.295 1.53 4.59 3.06 6.885 4.589l-6.856 4.589c.002-.864.004-1.731.003-2.598-5.189-.905-9.186-3.803-9.194-7.294 0-3.292 3.691-6.185 8.778-7.183-.008.466-.015.936-.017 1.409-3.192.798-5.586 2.594-5.586 4.69 0 2.195 2.594 4.39 5.985 4.59.001 0 .001 0 .001.001" fill="#262525"/><path d="M710.001 8.3c-.749-.499-1.5-.997-2.251-1.497-.751-.499-1.501-1.001-2.251-1.502 1.499-1 2.999-2.001 4.5-3 .001.666.002 1.333.002 2.001 5.697.699 9.994 3.798 9.994 7.296 0 2.098-1.499 3.997-3.798 5.396l-3.897-2.498c2.198-.9 3.598-2.399 3.598-3.998 0-2.198-2.499-3.997-5.897-4.697V8.3m-4.703 7.503v-2.799c2.299 1.533 4.597 3.065 6.896 4.598l-6.889 4.597c0-.866.001-1.733.001-2.6-5.198-.901-9.197-3.8-9.199-7.298 0-3.298 3.698-6.196 8.795-7.196-.002.467-.004.934-.004 1.402-3.199.8-5.597 2.599-5.597 4.698 0 2.199 2.598 4.397 5.996 4.597l.001.001M734 8.3l-2.25-1.5-2.25-1.5 4.5-3v2c5.7.7 10 3.8 10 7.3 0 2.1-1.5 4-3.8 5.4l-3.9-2.5c2.2-.9 3.6-2.4 3.6-4 0-2.2-2.5-4-5.9-4.7v2.5m-4.7 7.5V13c2.3 1.533 4.6 3.067 6.9 4.6l-6.9 4.6v-2.6c-5.2-.9-9.2-3.8-9.2-7.3 0-3.3 3.7-6.2 8.8-7.2v1.4c-3.2.8-5.6 2.6-5.6 4.7 0 2.2 2.6 4.4 6 4.6" fill="#252525"/></svg>