<svg xmlns="http://www.w3.org/2000/svg" viewBox="0 0 744 24" width="744" height="24"><path d="M14.859 15.063c.166-.052.335-.105.507-.158.171-.054.347-.108.525-.164.178-.055.359-.111.544-.168.185-.057.373-.115.565-.173 12.5-3.6.4-4.3.4-4.3s11.3 1.4-4.3 3.7c-.567.767-1.133 1.533-1.7 2.3.125-.033.252-.068.381-.104.13-.036.261-.074.395-.112.134-.039.27-.079.408-.12.139-.041.28-.083.423-.127.144-.043.29-.088.439-.134.148-.046.3-.093.454-.14.154-.048.311-.097.471-.147.16-.05.323-.101.488-.153M7.11 17.631c.282-.159.67-.331 1.19-.531.7-.967 1.4-1.933 2.1-2.9-4.525.65-6.987 1.331-8.136 1.988-1.148.656-.983 1.287-.251 1.837.731.55 2.028 1.019 3.142 1.35 1.114.331 2.045.525 2.045.525-.16-.3-.316-.552-.442-.771-.127-.219-.224-.406-.265-.575-.042-.168-.028-.32.066-.468.095-.149.27-.296.551-.455M18.7 3.9l.9.7.7-.9c0-.1 0-.2-.1-.3l-.5-.4c-.1-.1-.2-.1-.3 0l-.7.9m-.6.8l.9.7-9.5 12.7L7.4 20l1.2-2.5 9.5-12.8m1.8 4.9" fill="#f6edcf"/><path d="M38.857 15.046c.165-.054.334-.108.505-.164.18-.052.361-.102.539-.151.177-.052.355-.104.534-.158.188-.055.379-.11.573-.167 12.475-3.594.408-4.297.408-4.302 0-.009-.01-.017-.024-.018v-.005c-.004.002 11.264 1.401-4.301 3.698-.563.766-1.127 1.532-1.69 2.298.125-.033.252-.068.381-.103.129-.036.261-.073.394-.112.134-.038.27-.078.408-.119.139-.041.28-.083.423-.126.143-.043.289-.088.438-.133.149-.046.3-.092.454-.14.154-.048.311-.096.47-.146.16-.05.323-.1.488-.152m-7.741 2.581c.281-.159.668-.331 1.186-.53-.008-.001-.014-.006-.014-.012.698-.969 1.402-1.938 2.108-2.904-4.514.647-6.97 1.326-8.116 1.979-1.158.657-1.002 1.294-.272 1.851.729.557 2.033 1.032 3.157 1.365 1.111.332 2.04.528 2.04.53-.154-.303-.304-.559-.424-.781-.129-.221-.228-.408-.273-.579-.044-.17-.033-.323.058-.473.094-.146.269-.29.55-.446M42.664 3.914l.898.698.698-.897c0-.1 0-.2-.1-.3l-.499-.399c-.099-.099-.199-.099-.299 0l-.698.898m-.579.798l.898.699-9.477 12.668-2.095 1.896 1.197-2.494 9.477-12.769M43.9 9.6" fill="#f5edcf"/><path d="M62.85 14.991c.164-.06.331-.121.501-.183.206-.046.406-.081.582-.112.177-.038.341-.077.501-.124.197-.047.397-.095.6-.144 12.392-3.577.436-4.29.436-4.312 0-.037-.046-.07-.106-.078v-.021c-.016.011 11.148 1.406-4.302 3.693-.553.763-1.106 1.527-1.658 2.291.124-.032.251-.066.38-.101s.26-.071.393-.109c.134-.037.269-.076.407-.116.139-.04.279-.082.422-.124.143-.042.289-.086.437-.131.148-.044.299-.09.452-.137.154-.046.31-.094.469-.143.159-.049.321-.098.486-.149m-7.716 2.621c.278-.158.662-.328 1.177-.526-.037-.002-.064-.025-.064-.049.692-.979 1.41-1.954 2.137-2.919-4.477.638-6.913 1.307-8.049 1.952-1.191.659-1.066 1.315-.343 1.894.724.581 2.049 1.076 3.207 1.413 1.102.337 2.023.538 2.023.547-.133-.313-.263-.578-.364-.811-.137-.225-.245-.418-.299-.593-.053-.175-.052-.333.029-.489.094-.137.267-.272.546-.419M66.545 3.961l.89.692.693-.89c0-.099 0-.198-.099-.297l-.495-.396c-.099-.099-.198-.099-.297 0l-.692.891m-.51.792l.891.693-9.399 12.565-2.078 1.879 1.187-2.473 9.399-12.664M67.9 9.6" fill="#f4ebcd"/><path d="M86.837 14.888c.161-.072.326-.145.493-.219.256-.034.491-.04.664-.037.174-.013.315-.029.438-.061.213-.034.43-.068.651-.104 12.236-3.543.488-4.274.488-4.328 0-.091-.112-.171-.259-.189v-.052c-.039.026 10.93 1.416-4.305 3.682-.533.76-1.065 1.52-1.598 2.279.124-.03.25-.063.379-.096.128-.034.259-.068.391-.104.133-.036.268-.074.406-.112.137-.039.277-.078.419-.119.142-.041.287-.083.434-.126.148-.043.297-.087.45-.132.153-.045.308-.091.466-.138.158-.047.319-.095.483-.144m-7.67 2.696c.274-.155.652-.323 1.159-.518-.088-.005-.155-.062-.155-.119.682-.996 1.426-1.984 2.19-2.946-4.408.621-6.807 1.273-7.925 1.9-1.251.665-1.185 1.355-.473 1.976.712.626 2.079 1.158 3.299 1.504 1.085.345 1.992.556 1.992.578-.096-.331-.189-.617-.252-.87-.153-.233-.277-.434-.347-.619-.071-.184-.087-.351-.025-.516.092-.121.263-.239.537-.37M90.322 4.047l.877.682.682-.876c0-.098 0-.195-.097-.293l-.487-.389c-.098-.098-.195-.098-.293 0l-.682.876m-.38.782l.877.682-9.254 12.372-2.046 1.851 1.169-2.436 9.254-12.469M91.9 9.6" fill="#f1e8cb"/><path d="M110.816 14.725c.158-.091.318-.182.481-.275.333-.016.625.022.794.079.169.028.272.049.338.04.24-.012.484-.025.731-.039 11.99-3.49.57-4.25.57-4.355 0-.175-.215-.33-.5-.365v-.099c-.075.049 10.586 1.429-4.31 3.665-.501.753-1.002 1.506-1.503 2.26.124-.029.249-.059.377-.09.127-.031.257-.063.389-.097s.266-.068.402-.104c.136-.036.275-.074.416-.112.141-.038.284-.077.43-.118.146-.04.295-.081.446-.124.151-.042.305-.086.461-.13.157-.044.316-.09.478-.136m-7.596 2.815c.267-.151.636-.315 1.13-.505-.17-.01-.3-.12-.3-.23.665-1.023 1.45-2.031 2.275-2.989-4.299.594-6.639 1.218-7.73 1.818-1.345.673-1.373 1.418-.678 2.105.695.697 2.127 1.288 3.445 1.647 1.058.358 1.943.586 1.943.629-.037-.362-.071-.678-.076-.963-.177-.246-.327-.461-.424-.66-.097-.199-.141-.381-.109-.56.09-.095.256-.188.524-.292m10.751-13.355l.855.665.665-.855c0-.095 0-.19-.095-.285l-.475-.38c-.095-.095-.19-.095-.285 0l-.665.855m-.176.765l.855.665-9.025 12.066-1.995 1.805 1.14-2.375 9.025-12.161M115.9 9.6" fill="#ece3c7"/><path d="M134.786 14.487c.152-.118.306-.237.463-.357.447.01.82.114.983.25.163.086.21.162.192.187.28.019.562.037.848.054 11.632-3.412.69-4.215.69-4.393 0-.298-.366-.562-.851-.622v-.17c-.128.085 10.083 1.451-4.317 3.641-.455.744-.91 1.488-1.364 2.232.122-.026.246-.052.373-.08.126-.027.254-.056.385-.086.13-.03.262-.062.397-.094s.272-.066.411-.1c.139-.035.281-.07.425-.107.144-.036.291-.074.44-.112.149-.039.3-.078.454-.119.155-.04.311-.081.471-.124m-7.489 2.988c.257-.145.612-.303 1.088-.486-.289-.017-.511-.204-.511-.391.641-1.063 1.486-2.101 2.398-3.053-4.14.555-6.392 1.138-7.443 1.699-1.485.685-1.648 1.51-.979 2.294.669.801 2.196 1.476 3.657 1.856 1.02.377 1.872.628 1.872.702.049-.405.102-.766.182-1.097-.213-.266-.4-.502-.536-.722-.136-.219-.221-.423-.233-.624.087-.057.247-.111.505-.178m10.16-13.09l.824.641.64-.824c0-.091 0-.183-.091-.274l-.458-.366c-.091-.092-.183-.092-.274 0l-.641.823m.124.741l.823.64-8.691 11.619-1.922 1.738 1.098-2.287 8.692-11.71M139.9 9.6" fill="#e4dcc1"/><path d="M158.744 14.157c.144-.156.29-.314.439-.472.604.047 1.09.241 1.245.488.154.167.124.319-.011.39.334.062.672.124 1.012.185 11.133-3.305.855-4.166.855-4.447 0-.469-.576-.884-1.339-.978v-.268c-.201.134 9.384 1.481-4.327 3.606-.391.731-.781 1.462-1.171 2.193.121-.02.243-.042.368-.065.124-.023.251-.047.379-.072.129-.025.259-.051.392-.078.132-.028.267-.056.404-.085.137-.03.276-.06.417-.091.141-.031.285-.064.431-.097.146-.033.295-.067.446-.102.151-.035.304-.07.46-.107m-7.34 3.229c.244-.138.58-.287 1.03-.46-.455-.027-.804-.322-.804-.616.607-1.119 1.534-2.197 2.569-3.141-3.919.5-6.051 1.028-7.046 1.533-1.678.703-2.03 1.638-1.397 2.556.634.945 2.293 1.74 3.954 2.147.965.403 1.771.687 1.771.803.17-.465.343-.889.541-1.284-.263-.292-.501-.557-.691-.806-.19-.248-.332-.482-.405-.714.082-.003.234-.005.478-.018m9.34-12.723l.78.607.606-.78c0-.086 0-.173-.087-.26l-.433-.346c-.086-.087-.173-.087-.259 0l-.607.779m.539.707l.779.606-8.227 10.999-1.819 1.645 1.039-2.165 8.228-11.085M163.9 9.6" fill="#dad2b8"/><path d="M182.689 13.721c.133-.207.268-.415.406-.623.812.096 1.449.409 1.591.801.143.274.011.526-.278.659.407.12.815.239 1.227.358 10.476-3.163 1.075-4.102 1.075-4.518 0-.695-.854-1.31-1.985-1.449v-.397c-.297.198 8.462 1.519-4.339 3.561-.306.714-.611 1.428-.917 2.141.119-.014.24-.029.362-.046.122-.016.246-.034.372-.053.126-.018.254-.038.383-.058.13-.021.261-.043.395-.065.134-.023.27-.046.407-.07.138-.024.278-.05.42-.076.142-.026.287-.052.434-.08.146-.028.295-.056.447-.085m-7.144 3.547c.226-.128.537-.266.953-.426-.674-.04-1.19-.476-1.19-.913.561-1.192 1.598-2.324 2.794-3.257-3.627.428-5.6.882-6.521 1.315-1.933.725-2.534 1.806-1.948 2.902.586 1.135 2.419 2.087 4.344 2.531.893.437 1.64.764 1.64.936.328-.544.659-1.051 1.015-1.531-.33-.327-.636-.629-.897-.916-.262-.288-.479-.561-.632-.833.076.066.216.134.442.192m8.257-12.237l.722.561.561-.721c0-.08 0-.16-.08-.241l-.401-.32c-.08-.08-.16-.08-.24 0l-.562.721m1.087.661l.722.561-7.615 10.18-1.683 1.523.962-2.004 7.614-10.26M187.9 9.6" fill="#cdc5ad"/><path d="M206.62 13.182c.12-.269.242-.539.366-.809 1.069.156 1.891.617 2.02 1.189.128.405-.13.781-.608.991.495.19.992.38 1.492.57 9.664-2.988 1.345-4.022 1.345-4.606 0-.973-1.195-1.835-2.78-2.03v-.556c-.417.278 7.323 1.567-4.356 3.506-.201.692-.401 1.385-.602 2.077.117-.007.235-.014.354-.023s.24-.018.363-.029c.122-.01.247-.022.373-.034.126-.012.254-.026.384-.04.129-.014.261-.029.394-.044.134-.016.269-.032.407-.05.137-.017.276-.035.418-.053.141-.019.285-.038.43-.059m-6.901 3.94c.204-.115.484-.239.859-.383-.945-.056-1.668-.668-1.668-1.28.505-1.281 1.678-2.48 3.073-3.4-3.267.339-5.045.702-5.874 1.046-2.247.751-3.156 2.013-2.628 3.328.528 1.37 2.576 2.515 4.826 3.005.805.48 1.477.86 1.477 1.102.524-.643 1.051-1.252 1.599-1.836-.411-.372-.801-.719-1.15-1.054-.35-.336-.66-.658-.912-.978.068.152.195.306.398.45m6.921-11.637l.65.505.506-.649c0-.073 0-.145-.073-.217l-.361-.289c-.072-.072-.144-.072-.216 0l-.506.65m1.764.605l.65.506-6.859 9.168-1.516 1.372.866-1.805 6.859-9.241M211.9 9.6" fill="#bcb5a0"/><path d="M230.544 12.579c.105-.339.211-.679.32-1.018 1.358.223 2.387.849 2.499 1.622.113.553-.286 1.069-.977 1.363.594.27 1.191.54 1.789.809 8.754-2.792 1.649-3.933 1.649-4.704 0-1.286-1.579-2.424-3.673-2.681v-.735c-.551.367 6.048 1.62-4.373 3.443-.083.669-.166 1.337-.249 2.006.113.002.228.003.344.003.116 0 .234-.001.353-.002.119-.002.24-.004.362-.007s.245-.007.371-.011c.125-.005.252-.01.38-.016.129-.006.259-.013.391-.02.132-.008.266-.016.401-.024.136-.009.273-.018.413-.028m-6.629 4.38c.178-.101.423-.21.752-.336-1.249-.074-2.203-.882-2.203-1.69.442-1.383 1.767-2.656 3.385-3.561-2.863.24-4.421.499-5.148.743-2.599.783-3.854 2.247-3.391 3.807.463 1.634 2.752 2.995 5.367 3.536.705.528 1.294.968 1.294 1.287.744-.753 1.49-1.476 2.255-2.178-.503-.42-.986-.819-1.435-1.208-.449-.388-.862-.765-1.225-1.141.06.248.17.499.349.741m5.422-10.965l.57.442.443-.569c0-.063 0-.126-.063-.19l-.317-.253c-.063-.063-.126-.063-.19 0l-.443.57m2.522.542l.57.443-6.011 8.036-1.328 1.202.759-1.582 6.01-8.099M235.9 9.6" fill="#a9a491"/><path d="M254.466 11.971c.09-.409.182-.819.275-1.229 1.648.291 2.886 1.084 2.983 2.06.097.701-.445 1.357-1.351 1.738.695.35 1.392.699 2.09 1.049 7.836-2.594 1.955-3.843 1.955-4.803 0-1.601-1.966-3.018-4.573-3.338v-.915c-.686.458 4.762 1.675-4.391 3.38.035.645.071 1.29.106 1.935.111.01.223.02.336.029.113.009.227.017.343.025.115.007.232.014.35.02.118.007.237.012.358.017.121.005.243.01.366.013.124.004.249.007.376.01.126.002.254.004.384.006.13.001.26.002.393.003m-6.354 4.823c.152-.087.363-.18.645-.288-1.554-.092-2.743-1.098-2.743-2.104.38-1.485 1.857-2.832 3.7-3.723-2.456.139-3.792.296-4.416.439-2.955.813-4.557 2.482-4.16 4.289.397 1.899 2.93 3.48 5.912 4.071.605.576 1.11 1.077 1.11 1.474.965-.864 1.932-1.702 2.915-2.522-.594-.469-1.173-.921-1.721-1.364-.549-.442-1.067-.874-1.542-1.306.052.346.147.694.3 1.034m3.912-10.288l.489.38.38-.488c0-.054 0-.109-.055-.163l-.271-.217c-.054-.054-.109-.054-.163 0l-.38.488m3.287.48l.488.38-5.156 6.893-1.14 1.031.652-1.357 5.156-6.947M259.9 9.6" fill="#969281"/><path d="M278.395 11.408c.076-.474.154-.949.233-1.424 1.916.354 3.348 1.301 3.43 2.465.081.839-.592 1.624-1.696 2.084.788.425 1.577.849 2.367 1.272 6.988-2.411 2.238-3.759 2.238-4.894 0-1.892-2.324-3.567-5.405-3.946V5.884c-.81.541 3.572 1.725-4.408 3.322.145.623.29 1.245.435 1.868.108.018.218.036.327.053.11.017.222.034.334.05.112.016.225.032.34.046.114.015.229.029.346.043.117.014.235.027.353.04.119.013.24.025.361.037.121.011.244.023.369.034.124.011.249.021.376.031m-6.101 5.234c.129-.074.307-.153.546-.245-1.837-.108-3.242-1.297-3.242-2.486.321-1.579 1.94-2.996 3.991-3.873-2.079.047-3.211.108-3.739.157-3.284.842-5.207 2.7-4.871 4.736.336 2.144 3.094 3.927 6.416 4.566.512.62.94 1.177.94 1.646 1.169-.967 2.341-1.911 3.526-2.84-.68-.515-1.346-1.015-1.986-1.507-.641-.493-1.256-.976-1.835-1.459.044.436.124.873.254 1.305m2.515-9.661l.414.321.322-.413c0-.046 0-.092-.046-.138l-.23-.184c-.046-.046-.092-.046-.138 0l-.322.414m3.994.421l.414.322-4.366 5.836-.965.873.552-1.149 4.365-5.882M283.9 9.6" fill="#858173"/><path d="M302.332 10.913c.064-.531.129-1.063.196-1.595 2.152.409 3.754 1.492 3.823 2.821.069.96-.72 1.859-1.999 2.389.869.49 1.74.979 2.612 1.467 6.241-2.25 2.486-3.686 2.486-4.975 0-2.147-2.639-4.049-6.136-4.479V5.314c-.921.614 2.525 1.768-4.423 3.27.241.603.483 1.207.724 1.81.106.025.213.05.32.074.107.025.216.048.325.072.109.023.219.046.33.069.111.022.223.044.336.066.113.021.227.042.342.063.115.021.231.041.349.061.116.019.234.039.354.059.119.018.239.037.361.055m-5.878 5.595c.109-.062.259-.128.46-.206-2.087-.122-3.682-1.472-3.682-2.822.271-1.662 2.014-3.14 4.248-4.005-1.749-.035-2.7-.058-3.144-.091-3.573.867-5.78 2.891-5.497 5.128.283 2.36 3.238 4.321 6.859 5.001.431.66.791 1.266.791 1.798 1.349-1.056 2.7-2.095 4.062-3.12-.754-.555-1.497-1.098-2.219-1.633-.722-.536-1.422-1.065-2.091-1.593.036.515.104 1.032.213 1.543m1.288-9.111l.347.271.271-.348c0-.038 0-.077-.039-.116l-.193-.154c-.039-.039-.077-.039-.116 0l-.27.347m4.615.371l.348.27-3.671 4.908-.811.734.463-.966 3.671-4.946M307.9 9.6" fill="#767267"/><path d="M326.278 10.488c.054-.58.108-1.161.164-1.742 2.355.456 4.103 1.656 4.161 3.126.057 1.065-.831 2.061-2.259 2.652.939.545 1.879 1.09 2.821 1.635 5.6-2.112 2.699-3.624 2.699-5.044 0-2.368-2.908-4.465-6.764-4.938V4.824c-1.014.676 1.627 1.806-4.435 3.226.324.587.648 1.173.972 1.759.104.031.208.063.313.093.106.031.212.061.319.091.106.029.213.059.322.088.108.029.217.057.327.086.11.028.221.056.332.083.111.028.224.055.337.082.113.026.228.053.343.079.115.026.231.052.348.077m-5.687 5.905c.092-.052.217-.108.385-.172-2.299-.136-4.058-1.624-4.058-3.112.226-1.733 2.076-3.264 4.467-4.117-1.464-.106-2.261-.201-2.632-.304-3.822.888-6.271 3.054-6.034 5.464.236 2.546 3.362 4.659 7.24 5.375.36.694.661 1.342.661 1.929 1.504-1.134 3.01-2.253 4.525-3.361-.819-.589-1.628-1.169-2.42-1.742-.791-.573-1.565-1.14-2.312-1.707.031.583.087 1.167.178 1.747m.233-8.637l.291.226.227-.291c0-.032 0-.065-.032-.097l-.162-.13c-.033-.032-.065-.032-.097 0l-.227.292m5.15.326l.291.227-3.074 4.109-.679.615.388-.809 3.074-4.142M331.9 9.6" fill="#69665c"/><path d="M350.232 10.126c.045-.622.09-1.245.137-1.867 2.528.496 4.4 1.795 4.448 3.386.049 1.153-.924 2.233-2.48 2.875.998.593 1.998 1.185 2.999 1.778 5.054-1.994 2.882-3.57 2.882-5.103 0-2.555-3.139-4.818-7.3-5.329v-1.46c-1.095.73.862 1.838-4.446 3.189.395.572.789 1.144 1.183 1.716.103.037.206.073.309.109.103.036.207.071.312.107.104.034.209.07.315.104.106.035.212.069.32.103.107.033.215.067.323.1.109.034.219.066.329.099.109.033.22.065.332.098.112.032.224.064.337.095m-5.523 6.168c.076-.043.181-.089.321-.143-2.482-.146-4.38-1.752-4.38-3.358.189-1.794 2.13-3.369 4.655-4.214-1.222-.165-1.887-.321-2.197-.485-4.033.907-6.689 3.195-6.492 5.752.198 2.703 3.468 4.947 7.565 5.693.3.723.552 1.407.552 2.04 1.636-1.2 3.272-2.388 4.917-3.566-.873-.619-1.739-1.229-2.59-1.834-.85-.606-1.686-1.206-2.5-1.806.025.641.073 1.283.149 1.921m-.667-8.233l.244.189.189-.243c0-.027 0-.054-.027-.081l-.135-.108c-.027-.027-.054-.027-.082 0l-.189.243m5.605.289l.243.189-2.565 3.429-.567.513.324-.675 2.565-3.456M355.9 9.6" fill="#5d5b53"/><path d="M374.193 9.818c.037-.658.075-1.316.113-1.975 2.676.531 4.654 1.915 4.694 3.609.04 1.228-1.005 2.379-2.67 3.064 1.05.634 2.101 1.267 3.152 1.9 4.589-1.893 3.037-3.524 3.037-5.153 0-2.714-3.335-5.118-7.756-5.661V4.051c-1.163.775.21 1.865-4.455 3.157.454.56.909 1.119 1.363 1.679.101.041.203.082.304.122.102.041.204.08.307.121.102.039.206.079.31.118.104.039.208.078.313.117.105.038.211.077.316.115.106.039.213.076.321.114.106.038.215.075.323.113.109.037.218.074.328.111m-5.384 6.393c.063-.036.15-.074.267-.119-2.637-.155-4.654-1.862-4.654-3.568.157-1.845 2.176-3.458 4.815-4.296-1.016-.216-1.569-.425-1.826-.64-4.213.923-7.046 3.314-6.882 5.997.164 2.838 3.558 5.192 7.841 5.965.25.746.459 1.461.459 2.134 1.748-1.257 3.496-2.502 5.252-3.741-.921-.643-1.834-1.28-2.735-1.913-.902-.632-1.79-1.26-2.661-1.889.021.691.06 1.382.124 2.07m-1.432-7.89l.202.157.157-.202c0-.023 0-.045-.023-.068l-.112-.089c-.022-.023-.045-.023-.067 0l-.157.202m5.992.257l.202.157-2.132 2.85-.471.427.269-.561 2.132-2.873M379.9 9.6" fill="#54524b"/><path d="M398.159 9.555c.031-.688.063-1.377.094-2.065 2.801.56 4.87 2.016 4.903 3.797.033 1.293-1.073 2.504-2.831 3.227 1.093.668 2.187 1.336 3.281 2.004 4.193-1.809 3.169-3.486 3.169-5.196 0-2.851-3.502-5.376-8.144-5.946V3.747c-1.222.815-.346 1.889-4.463 3.13.506.55 1.011 1.099 1.517 1.649.1.044.2.089.3.133.1.044.201.088.303.132.1.043.202.087.304.13.102.044.204.086.308.13.103.042.206.085.31.127.104.043.209.085.314.127.104.042.21.084.316.126.106.041.212.083.319.124m-5.265 6.585c.052-.03.124-.062.22-.099-2.769-.163-4.886-1.954-4.886-3.746.13-1.89 2.214-3.535 4.95-4.366-.839-.26-1.296-.513-1.509-.772-4.367.937-7.35 3.416-7.214 6.205.136 2.953 3.634 5.402 8.076 6.196.206.768.379 1.509.379 2.215 1.844-1.304 3.688-2.6 5.538-3.889-.96-.665-1.915-1.324-2.859-1.98-.944-.656-1.879-1.308-2.798-1.96.018.732.05 1.465.103 2.196m-2.085-7.598l.167.13.13-.167c0-.018 0-.037-.018-.056l-.093-.074c-.019-.018-.037-.018-.056 0l-.13.167m6.323.23l.167.13-1.763 2.357-.39.352.223-.464 1.763-2.375m6.768.828" fill="#4c4a45"/><path d="M422.131 9.331c.025-.714.051-1.429.077-2.144 2.908.586 5.054 2.103 5.081 3.959.027 1.348-1.132 2.611-2.968 3.365 1.13.698 2.26 1.395 3.391 2.093 3.855-1.735 3.282-3.453 3.282-5.233 0-2.966-3.644-5.594-8.476-6.187V3.489c-1.271.847-.821 1.908-4.469 3.106.549.541 1.098 1.082 1.648 1.622.098.048.197.096.296.143.099.048.199.095.299.142.099.047.2.094.301.14.1.047.201.094.302.14.102.046.204.093.305.138.102.047.205.092.308.138.103.046.206.092.31.137.104.045.208.091.313.136m-5.165 6.748c.043-.024.102-.05.182-.081-2.882-.169-5.086-2.034-5.086-3.899.107-1.927 2.248-3.6 5.067-4.426-.69-.296-1.065-.588-1.24-.883-4.498.947-7.609 3.501-7.498 6.382.112 3.051 3.7 5.58 8.277 6.394.17.785.312 1.549.312 2.284 1.925-1.346 3.851-2.684 5.781-4.017-.994-.683-1.983-1.361-2.964-2.037-.982-.676-1.954-1.348-2.915-2.021.015.768.041 1.537.084 2.304m-2.641-7.348l.137.107.107-.137c0-.015 0-.031-.016-.046l-.076-.061c-.015-.015-.03-.015-.046 0l-.106.137m6.605.207l.137.107-1.448 1.935-.32.29.183-.381 1.448-1.951m6.97.662" fill="#45433f"/><path d="M446.107 9.139c.02-.736.041-1.473.062-2.21 3 .607 5.212 2.177 5.234 4.097.022 1.395-1.182 2.702-3.086 3.483 1.161.723 2.324 1.446 3.486 2.169 3.565-1.673 3.378-3.425 3.378-5.264 0-3.066-3.766-5.781-8.759-6.395V3.267c-1.314.876-1.227 1.926-4.475 3.087.586.533 1.173 1.066 1.76 1.599.097.051.196.102.293.151.098.051.197.101.296.151.098.05.197.1.297.149.099.05.198.099.298.149.101.049.201.099.301.147.101.05.202.098.303.147.101.049.203.098.305.147.102.048.204.097.307.145m-5.079 6.888c.035-.02.083-.041.148-.066-2.978-.175-5.256-2.102-5.256-4.029.087-1.96 2.276-3.656 5.166-4.477-.561-.328-.867-.652-1.009-.98-4.61.958-7.83 3.576-7.74 6.535.091 3.134 3.756 5.733 8.449 6.562.138.801.254 1.583.254 2.343 1.994-1.381 3.99-2.755 5.989-4.125-1.023-.699-2.043-1.394-3.055-2.086-1.013-.693-2.018-1.383-3.014-2.073.012.799.033 1.599.068 2.396m-3.117-7.134l.111.087.087-.112c0-.012 0-.025-.012-.037l-.062-.05c-.013-.012-.025-.012-.037 0l-.087.112m6.846.187l.111.087-1.178 1.575-.261.236.149-.311 1.179-1.587m7.143.52" fill="#3f3e3a"/><path d="M470.086 8.975c.016-.755.033-1.511.05-2.266 3.078.625 5.346 2.24 5.364 4.214.018 1.435-1.225 2.78-3.186 3.584 1.188.745 2.377 1.489 3.567 2.233 3.318-1.619 3.46-3.399 3.46-5.29 0-3.15-3.871-5.941-9.002-6.571v-1.8c-1.35.9-1.572 1.94-4.48 3.07.619.526 1.238 1.053 1.856 1.579.097.053.194.106.291.158.098.053.195.106.293.158.097.052.196.105.294.157.098.052.196.104.295.156.099.052.198.104.297.155.099.052.199.104.299.155.099.052.2.103.3.155.101.051.201.103.302.153m-5.005 7.008c.029-.016.067-.033.119-.053-3.06-.18-5.401-2.161-5.401-4.141.07-1.987 2.3-3.704 5.251-4.52-.452-.356-.698-.707-.812-1.062-4.706.966-8.02 3.639-7.947 6.665.073 3.205 3.803 5.862 8.595 6.706.111.813.204 1.612.204 2.392 2.055-1.41 4.11-2.815 6.167-4.217-1.047-.712-2.092-1.421-3.132-2.128-1.039-.707-2.073-1.412-3.099-2.117.01.825.027 1.651.055 2.475m-3.523-6.952l.089.07.07-.09c0-.01 0-.02-.01-.03l-.05-.04c-.01-.01-.02-.01-.03 0l-.069.09m7.051.17l.09.07-.949 1.268-.209.189.12-.249.948-1.278m7.291.399" fill="#3a3936"/><path d="M494.068 8.836c.013-.771.027-1.543.04-2.315 3.144.641 5.46 2.294 5.474 4.315.014 1.469-1.26 2.846-3.271 3.67 1.211.763 2.423 1.525 3.635 2.288 3.109-1.574 3.531-3.379 3.531-5.313 0-3.223-3.959-6.077-9.208-6.721V2.918c-1.381.921-1.867 1.952-4.484 3.055.646.522 1.292 1.043 1.937 1.564.097.054.193.109.289.164.097.055.194.109.291.164.096.054.194.109.291.163.098.054.195.108.292.163.098.053.197.108.294.161.098.055.197.108.296.162.097.054.196.108.296.162.099.053.197.107.297.16m-4.941 7.109c.022-.013.053-.026.094-.042-3.131-.184-5.525-2.21-5.525-4.236.056-2.01 2.321-3.744 5.323-4.557-.359-.378-.554-.754-.645-1.132-4.787.973-8.18 3.693-8.122 6.776.057 3.266 3.843 5.973 8.72 6.828.088.825.162 1.637.162 2.436 2.105-1.436 4.21-2.868 6.318-4.297-1.069-.723-2.136-1.444-3.198-2.163-1.062-.72-2.12-1.437-3.171-2.155.007.847.021 1.696.044 2.542m-3.87-6.797l.071.056.055-.071c0-.008 0-.016-.007-.024l-.04-.032c-.008-.008-.016-.008-.024 0l-.055.071m7.226.156l.072.055-.753 1.006-.166.151.095-.198.752-1.014m7.417.296" fill="#363532"/><path d="M518.053 8.718c.01-.785.021-1.571.031-2.356 3.201.654 5.557 2.339 5.568 4.4.011 1.498-1.291 2.902-3.344 3.742 1.231.779 2.463 1.557 3.694 2.335 2.93-1.535 3.59-3.361 3.59-5.332 0-3.283-4.034-6.192-9.382-6.849V2.782c-1.407.938-2.117 1.963-4.488 3.043.669.516 1.338 1.033 2.006 1.549.096.056.192.113.288.169.096.057.192.113.289.17.095.056.192.112.288.168.097.056.193.112.29.168l.291.168c.097.056.195.111.293.167.096.056.194.112.292.168.098.055.196.111.294.166m-4.888 7.195c.017-.01.041-.02.073-.033-3.19-.187-5.629-2.252-5.629-4.316.043-2.03 2.338-3.778 5.384-4.588-.28-.399-.432-.794-.503-1.191-4.856.978-8.317 3.738-8.272 6.869.045 3.317 3.878 6.067 8.826 6.932.069.834.126 1.659.126 2.472 2.148-1.457 4.297-2.911 6.447-4.364-1.087-.732-2.172-1.463-3.253-2.193-1.082-.73-2.16-1.458-3.233-2.187.006.866.016 1.734.034 2.599m-4.163-6.665l.055.043.043-.055c0-.007 0-.013-.006-.019l-.031-.025c-.006-.006-.012-.006-.018 0l-.043.056m7.375.143l.055.043-.586.785-.13.117.074-.154.587-.791m7.523.209" fill="#32312f"/><path d="M542.04 8.618c.008-.796.016-1.593.024-2.39 3.248.665 5.639 2.378 5.647 4.472.009 1.522-1.317 2.948-3.405 3.803 1.248.792 2.496 1.583 3.743 2.375 2.78-1.504 3.64-3.347 3.64-5.349 0-3.335-4.097-6.289-9.529-6.956V2.667c-1.429.953-2.327 1.972-4.491 3.033.688.512 1.376 1.025 2.065 1.538.095.057.191.115.285.173l.288.174c.094.057.19.115.287.172.096.058.191.115.287.173.097.058.193.115.289.172.096.058.193.115.29.173.096.057.193.114.29.172.097.057.193.115.29.171m-4.843 7.268c.013-.007.031-.015.056-.025-3.24-.19-5.718-2.287-5.718-4.383.033-2.047 2.353-3.808 5.436-4.616-.213-.414-.329-.826-.383-1.24-4.914.983-8.432 3.777-8.398 6.947.034 3.362 3.907 6.147 8.915 7.02.052.842.096 1.677.096 2.503 2.184-1.476 4.369-2.949 6.555-4.42-1.102-.74-2.203-1.48-3.3-2.219-1.098-.739-2.193-1.476-3.285-2.214.004.882.013 1.766.026 2.647m-4.41-6.554l.042.033.033-.043c0-.004 0-.009-.005-.014l-.023-.019c-.005-.004-.009-.004-.014 0l-.033.043m7.5.133l.042.033-.447.597-.098.09.056-.118.447-.602m7.613.135" fill="#2f2e2d"/><path d="M566.03 8.535l.018-2.418c3.287.674 5.706 2.409 5.712 4.531.007 1.542-1.338 2.988-3.455 3.855 1.261.802 2.522 1.604 3.784 2.407 2.655-1.477 3.681-3.335 3.681-5.362 0-3.378-4.15-6.371-9.652-7.046V2.571c-1.448.966-2.502 1.98-4.493 3.025.704.509 1.409 1.018 2.113 1.528.095.058.19.118.284.176.096.06.191.119.286.178.095.059.19.118.286.176.095.06.19.118.286.177.095.059.191.118.286.176l.288.177c.095.058.191.117.288.176.096.058.191.117.288.175m-4.806 7.329c.01-.006.023-.012.041-.019-3.281-.193-5.791-2.316-5.791-4.44.024-2.06 2.365-3.831 5.478-4.637-.157-.428-.243-.854-.283-1.282-4.962.988-8.528 3.809-8.502 7.013.025 3.398 3.931 6.213 8.989 7.093.039.849.071 1.691.071 2.528 2.214-1.49 4.429-2.979 6.644-4.467-1.114-.747-2.227-1.494-3.339-2.24-1.111-.746-2.221-1.491-3.327-2.236.003.895.009 1.792.019 2.687m-4.616-6.462l.031.024.025-.031c0-.004 0-.007-.004-.011l-.017-.014c-.004-.003-.007-.003-.011 0l-.024.032m7.604.124l.032.024-.331.442-.073.066.042-.087.33-.445m7.688.074" fill="#2c2c2b"/><path d="M590.021 8.467c.004-.813.009-1.628.013-2.442 3.32.682 5.762 2.436 5.767 4.58.004 1.559-1.357 3.02-3.498 3.897 1.273.811 2.545 1.622 3.818 2.434 2.552-1.455 3.716-3.325 3.716-5.373 0-3.414-4.194-6.437-9.753-7.12v-1.95c-1.463.975-2.646 1.985-4.495 3.017.717.507 1.435 1.013 2.152 1.52.095.06.19.12.284.18l.285.18c.094.06.189.12.284.18.095.06.189.12.284.18.095.059.191.12.285.179.096.06.191.12.286.18.095.059.19.119.286.18.096.059.19.119.286.178m-4.775 7.378c.007-.004.016-.008.029-.013-3.316-.195-5.851-2.34-5.851-4.486.017-2.072 2.375-3.851 5.513-4.656-.112-.439-.173-.877-.201-1.316-5.002.992-8.607 3.836-8.589 7.068.018 3.427 3.952 6.267 9.05 7.152.028.854.051 1.704.051 2.549 2.239-1.503 4.478-3.004 6.718-4.505-1.124-.753-2.248-1.505-3.371-2.258-1.122-.752-2.244-1.503-3.363-2.254.003.906.007 1.813.014 2.719m-4.785-6.386l.022.017.018-.022c0-.002 0-.005-.003-.007l-.012-.01c-.003-.003-.005-.003-.008 0l-.017.022m7.69.117l.022.018-.235.314-.052.047.03-.062.235-.317m7.749.024" fill="#2a2a29"/><path d="M614.014 8.413c.003-.82.006-1.641.009-2.461 3.346.687 5.807 2.456 5.81 4.619.003 1.572-1.37 3.046-3.531 3.93 1.282.819 2.563 1.637 3.845 2.456 2.469-1.437 3.743-3.317 3.743-5.382 0-3.442-4.228-6.49-9.833-7.178V2.43c-1.475.983-2.762 1.99-4.497 3.011.728.505 1.456 1.009 2.184 1.514.095.06.189.122.283.182.094.061.189.122.284.183.093.06.188.122.283.182.095.061.188.121.283.183.095.06.19.121.284.181l.285.183c.094.06.189.121.284.182.095.06.189.121.284.182m-4.75 7.417c.004-.002.011-.005.019-.008-3.343-.197-5.9-2.36-5.9-4.524.012-2.081 2.384-3.867 5.542-4.67-.075-.448-.116-.895-.135-1.343-5.035.994-8.67 3.856-8.658 7.11.012 3.451 3.967 6.311 9.099 7.201.019.858.034 1.713.034 2.566 2.259-1.513 4.518-3.025 6.778-4.537-1.133-.756-2.266-1.514-3.397-2.271-1.132-.757-2.262-1.513-3.392-2.269.002.915.005 1.831.01 2.745m-4.921-6.325l.015.012.012-.015c0-.002 0-.004-.002-.005l-.008-.007c-.002-.001-.004-.001-.005 0l-.012.015m7.759.112l.014.011-.158.212-.035.031.02-.041.159-.213M619.9 9.6" fill="#282828"/><path d="M638.009 8.37c.002-.825.003-1.651.005-2.476 3.367.692 5.843 2.473 5.845 4.65.001 1.583-1.382 3.067-3.558 3.957 1.289.824 2.577 1.648 3.866 2.472 2.405-1.423 3.765-3.31 3.765-5.388 0-3.464-4.256-6.532-9.897-7.225V2.381c-1.484.989-2.852 1.993-4.498 3.007.737.503 1.473 1.005 2.209 1.508.095.061.189.123.282.184.095.062.189.123.284.185.093.061.187.123.282.184.094.062.188.123.282.185.095.06.189.122.283.183.095.062.189.123.284.185.093.061.188.123.283.184.094.061.188.123.283.184m-4.732 7.449c.003-.002.007-.004.013-.006-3.365-.198-5.938-2.375-5.938-4.552.007-2.088 2.389-3.88 5.563-4.681-.046-.456-.072-.91-.084-1.365-5.059.996-8.719 3.873-8.711 7.144.007 3.47 3.979 6.345 9.137 7.239.012.861.021 1.72.021 2.578 2.275-1.52 4.55-3.04 6.824-4.56-1.139-.761-2.278-1.522-3.417-2.282-1.138-.761-2.276-1.521-3.413-2.281.001.921.002 1.844.005 2.766m-5.026-6.278l.009.007.007-.009c0-.001 0-.002-.001-.003l-.005-.004c-.001-.001-.002-.001-.003 0l-.007.009m7.812.107l.009.008-.098.131-.022.019.013-.025.098-.133M643.9 9.6" fill="#272727"/><path d="M662.005 8.338c.001-.828.002-1.658.003-2.487 3.381.696 5.868 2.486 5.869 4.673.001 1.591-1.39 3.082-3.576 3.976 1.293.829 2.587 1.657 3.881 2.485 2.358-1.412 3.781-3.305 3.781-5.393 0-3.481-4.276-6.563-9.944-7.259V2.344c-1.491.994-2.919 1.997-4.499 3.004.743.501 1.485 1.003 2.228 1.505.094.061.188.123.282.185l.282.186c.093.062.188.124.282.185.094.063.187.124.282.187.094.061.188.123.282.185.094.062.188.124.283.186.093.061.187.124.282.186.094.061.187.124.282.185m-4.717 7.472c.001-.001.003-.002.006-.003-3.38-.199-5.966-2.386-5.966-4.574.004-2.093 2.395-3.889 5.58-4.69-.025-.46-.039-.92-.045-1.38-5.078.998-8.756 3.885-8.752 7.169.004 3.484 3.989 6.37 9.166 7.267.006.864.011 1.726.011 2.588 2.286-1.526 4.572-3.052 6.859-4.578-1.145-.763-2.289-1.527-3.432-2.291-1.144-.763-2.288-1.526-3.43-2.289 0 .927.001 1.855.003 2.781m-5.106-6.242l.006.004.003-.005v-.002l-.003-.002c0-.001-.001-.001-.002 0l-.004.005m7.852.104l.006.004-.054.071-.012.011.007-.014.053-.072M667.9 9.6" fill="#262626"/><path d="M686.002 8.317c.001-.832.001-1.664.001-2.495 3.392.698 5.887 2.494 5.887 4.688.001 1.596-1.395 3.093-3.59 3.99 1.298.831 2.595 1.662 3.892 2.494 2.325-1.406 3.792-3.303 3.792-5.398 0-3.491-4.29-6.584-9.976-7.282V2.319c-1.496.998-2.965 1.999-4.499 3.002.747.5 1.493 1.001 2.24 1.502.094.061.188.124.281.186.094.063.189.125.283.187.093.062.187.125.281.187.094.062.187.124.281.187.094.061.189.124.282.186.094.063.188.124.282.187.093.062.187.125.282.187.094.062.187.125.281.187m-4.707 7.487s.001 0 .003-.001c-3.392-.199-5.986-2.394-5.986-4.589.002-2.097 2.398-3.895 5.592-4.695-.011-.464-.017-.928-.02-1.392-5.091.999-8.781 3.894-8.779 7.187.001 3.493 3.995 6.387 9.185 7.285.003.866.005 1.731.005 2.595l6.882-4.59c-1.148-.765-2.295-1.531-3.442-2.296-1.148-.766-2.295-1.53-3.442-2.296.001.931.001 1.862.002 2.792m-5.159-6.218l.002.002.002-.002c0-.001 0-.001-.001-.001l-.001-.001h-.001l-.001.002m7.879.102l.002.002-.023.03-.005.005.003-.006.023-.031M691.9 9.6" fill="#262525"/><path d="M710.001 8.304V5.805c3.398.7 5.897 2.499 5.897 4.698 0 1.599-1.399 3.098-3.598 3.997 1.299.833 2.599 1.666 3.898 2.498 2.306-1.401 3.798-3.3 3.798-5.399 0-3.498-4.297-6.596-9.994-7.296V2.305c-1.499.999-2.991 1.999-4.5 3 .749.5 1.499 1 2.248 1.501.094.061.188.124.281.186.094.063.188.125.282.188.093.062.187.125.281.187.094.063.187.125.281.188.094.062.188.125.281.187.094.063.188.124.282.187.093.062.187.125.281.188.094.062.187.125.282.187m-4.702 7.497c-3.398-.2-5.996-2.399-5.996-4.597 0-2.1 2.399-3.899 5.598-4.699-.003-.467-.004-.932-.005-1.398-5.098.999-8.795 3.898-8.795 7.196.001 3.499 3.999 6.397 9.197 7.297 0 .867.001 1.732.001 2.599 2.298-1.533 4.597-3.066 6.895-4.598-1.149-.766-2.298-1.532-3.448-2.299-1.149-.767-2.298-1.532-3.448-2.299 0 .932.001 1.866.001 2.798m-5.19-6.204l.001-.001h-.001v.001m7.895.1l-.005.008-.002.001.001-.001.006-.008M734 8.3V5.8c3.4.7 5.9 2.5 5.9 4.7 0 1.6-1.4 3.1-3.6 4 1.3.833 2.6 1.667 3.9 2.5 2.3-1.4 3.8-3.3 3.8-5.4 0-3.5-4.3-6.6-10-7.3v-2l-4.5 3 2.25 1.5c.094.062.188.125.281.187.094.063.188.125.282.188.093.062.187.125.281.187.094.063.187.125.281.188.094.062.188.125.281.187.094.063.188.125.282.188.093.062.187.125.281.188.094.062.187.125.281.187m-4.7 7.5c-3.4-.2-6-2.4-6-4.6 0-2.1 2.4-3.9 5.6-4.7V5.1c-5.1 1-8.8 3.9-8.8 7.2 0 3.5 4 6.4 9.2 7.3v2.6c2.3-1.533 4.6-3.067 6.9-4.6-1.15-.766-2.3-1.533-3.45-2.3-1.15-.767-2.3-1.533-3.45-2.3v2.8M739.9 9.6" fill="#252525"/></svg>