<svg xmlns="http://www.w3.org/2000/svg" viewBox="0 0 744 24" width="744" height="24"><path d="M14.669 5.181c.041.057.074.122.097.193.022.07.034.146.034.226v1h1.1v-2c0-.4-.3-.7-.7-.7H8.7c-.4 0-.7.3-.7.7v2h1.1v-1c0-.4.3-.7.7-.7h4.3c.08 0 .156.012.226.034.071.023.136.056.193.097.058.042.108.092.15.15M2.1 12.3V19c0 .5.4 1 1 1H21c.5 0 1-.4 1-1v-6.7l-3.6 1c-4.1 1.1-8.4 1.1-12.4 0-1.3-.333-2.6-.667-3.9-1m0-.7V7.5c0-.6.5-1 1-1h3v6.2l-.2-.1-3.8-1m14.7-5.1v6.4c-3.2.7-6.4.7-9.6 0V6.5h9.6m5.1 5.1l-3.6 1c-.1 0-.3.1-.4.1V6.5h3c.6 0 1 .5 1 1v4.1" fill="#ffe8d5"/><path d="M38.667 5.189c.042.055.074.117.097.186.03.072.049.152.049.237 0 .337-.004.673-.009 1.008l1.107.006c.005-.669.009-1.338.009-2.009 0-.407-.31-.714-.723-.716-2.161-.002-4.323-.003-6.484-.005-.403.003-.706.304-.709.706.002.001.003.002.005.003.001.666.001 1.331.001 1.996h1.098c0-.332 0-.664.001-.997 0-.398.299-.698.699-.697h4.29c.08 0 .156.012.226.035.071.022.136.055.193.097.058.041.108.092.15.15M26.095 12.3c0-.008.009-.015.022-.018v.004c-.008.002-.014.006-.014.011 0 2.234.006 4.467.015 6.695 0 .499.399.998.997.998 5.952-.003 11.904-.005 17.856-.007.502.002 1.003-.396 1.006-.992l.009-6.678-3.609 1.009c-4.089 1.095-8.379 1.093-12.369-.006-1.309-.335-2.616-.675-3.913-1.016m.01-.705v-4.09c0-.598.499-.997.997-.997h2.993v6.184l-.199-.099-3.791-.998m14.683-5.087v6.384c-3.192.698-6.384.698-9.576 0V6.508h9.576m5.107 5.087l-3.591.998c-.1 0-.299.099-.399.099V6.508h2.993c.598 0 .997.498.997.997v4.09" fill="#fee8d5"/><path d="M62.662 5.214c.041.048.073.103.095.164.059.077.097.172.097.274 0 .347-.015.693-.038 1.032l1.13.027c.024-.675.04-1.355.04-2.037 0-.433-.342-.762-.799-.77-2.143-.007-4.287-.014-6.431-.021-.411.011-.724.318-.74.724.008.006.016.011.024.016.001.661.002 1.321.003 1.981.364.001.727.001 1.091.002l.003-.987c.001-.395.299-.691.696-.691 1.419.001 2.838.002 4.257.002.08.001.156.013.227.036.071.023.136.056.194.098.058.042.109.092.151.15M50.079 12.3c0-.035.039-.066.093-.077v.015c-.034.009-.059.028-.059.05 0 2.233.027 4.466.064 6.678 0 .495.395.989.989.989 5.903-.01 11.806-.02 17.71-.029.506.008 1.013-.38 1.026-.965.012-2.202.024-4.403.036-6.605l-3.635 1.039c-4.056 1.079-8.31 1.07-12.268-.028-1.341-.339-2.67-.7-3.956-1.067m.042-.721V7.522c0-.593.495-.989.99-.989h2.968v6.134l-.198-.099-3.76-.989m14.628-5.045v6.332c-3.166.693-6.332.693-9.498 0V6.534h9.498m5.13 5.045l-3.562.989c-.099 0-.297.099-.396.099V6.533h2.968c.594 0 .99.495.99.989v4.057" fill="#fde6d3"/><path d="M86.652 5.261c.04.035.072.077.094.124.11.086.186.207.186.342 0 .366-.036.729-.093 1.077l1.172.065c.06-.686.098-1.384.098-2.088 0-.48-.403-.853-.94-.871-2.111-.017-4.221-.034-6.332-.051-.428.025-.759.344-.798.759.019.013.039.026.058.039.002.651.005 1.302.007 1.953.36.002.719.003 1.079.005.003-.323.005-.646.007-.969.003-.388.297-.679.69-.677 1.398.001 2.797.003 4.196.004.08.002.156.015.227.039.071.023.137.057.195.099.059.042.111.093.154.15M74.048 12.3c0-.085.096-.16.228-.186v.036c-.083.021-.145.067-.145.122 0 2.232.067 4.464.155 6.645 0 .487.39.974.974.974 5.813-.024 11.625-.048 17.437-.072.517.02 1.034-.35 1.064-.915.03-2.155.059-4.311.089-6.467l-3.685 1.093c-3.994 1.049-8.183 1.027-12.08-.067-1.401-.348-2.77-.748-4.037-1.163m.104-.752V7.554c0-.584.487-.974.974-.974h2.922v6.04l-.195-.098-3.701-.974m14.524-4.965v6.234c-3.117.682-6.235.682-9.352 0V6.583h9.352m5.172 4.965l-3.507.974c-.097 0-.292.098-.389.098V6.58h2.922c.585 0 .974.487.974.974v3.994" fill="#f9e3d0"/><path d="M110.635 5.337c.04.013.071.033.092.058.191.102.328.264.328.45 0 .396-.07.788-.18 1.149l1.24.125c.115-.703.189-1.431.189-2.169 0-.555-.499-.995-1.164-1.03-2.058-.033-4.117-.067-6.175-.1-.455.05-.815.385-.89.815.037.025.075.05.112.075.005.636.01 1.273.014 1.909.353.003.706.007 1.059.01.005-.314.01-.627.014-.941.005-.377.295-.659.68-.656 1.366.003 2.732.007 4.099.01.081.003.157.017.229.042.072.024.138.058.197.101.06.043.112.094.156.152M98 12.3c0-.165.185-.31.44-.36v.07c-.16.04-.28.13-.28.235 0 2.232.13 4.463.3 6.595 0 .475.38.95.95.95 5.668-.046 11.337-.093 17.006-.14.532.039 1.065-.303 1.122-.835.058-2.083.115-4.167.172-6.25l-3.764 1.179c-3.896 1.002-7.981.959-11.781-.129-1.495-.362-2.93-.824-4.165-1.315m.2-.8V7.605c0-.57.475-.95.95-.95H102v5.89l-.19-.095-3.61-.95m14.36-4.84v6.08c-3.04.665-6.08.665-9.12 0V6.66h9.12m5.24 4.84l-3.42.95c-.095 0-.285.095-.38.095v-5.89h2.85c.57 0 .95.475.95.95V11.5" fill="#f4decc"/><path d="M134.612 5.446c.038-.018.068-.03.088-.036.31.124.534.347.534.607 0 .441-.119.874-.306 1.255l1.338.213c.196-.729.323-1.501.323-2.289 0-.664-.64-1.202-1.491-1.262-1.982-.057-3.965-.113-5.947-.17-.494.085-.896.445-1.023.896.063.042.127.085.191.127.008.615.016 1.231.024 1.846.344.005.687.011 1.03.016.008-.3.016-.599.024-.899.008-.361.291-.63.665-.624 1.319.005 2.638.01 3.958.015.081.006.158.022.231.048.072.026.139.061.2.104.061.044.115.095.161.153M121.93 12.3c0-.281.315-.528.749-.613v.119c-.273.068-.477.222-.477.4 0 2.231.221 4.461.511 6.522 0 .457.366.915.915.915 5.459-.08 10.917-.159 16.376-.239.556.065 1.111-.235 1.209-.719.098-1.978.196-3.956.293-5.934l-3.88 1.306c-3.752.933-7.686.859-11.345-.221-1.632-.381-3.162-.933-4.351-1.536m.34-.87V7.679c0-.549.458-.915.915-.915h2.745v5.672l-.183-.091-3.477-.915m14.121-4.658v5.856c-2.927.64-5.855.64-8.782 0V6.772h8.782m5.339 4.658l-3.294.915c-.091 0-.274.091-.366.091V6.764h2.745c.549 0 .915.457.915.915v3.751" fill="#ecd7c6"/><path d="M158.579 5.599c.036-.062.065-.118.084-.168.475.154.82.461.82.825 0 .503-.187.993-.482 1.402l1.475.335c.308-.765.509-1.597.509-2.455 0-.816-.836-1.491-1.946-1.584-1.876-.09-3.753-.179-5.629-.268-.547.134-1.008.527-1.209 1.008.1.067.201.134.301.201.013.585.025 1.171.038 1.757.33.008.66.017.99.025.013-.28.025-.561.038-.841.013-.338.285-.589.644-.581 1.254.008 2.508.017 3.762.025.081.008.16.027.233.055.074.028.143.065.205.109s.119.096.167.155M145.832 12.3c0-.442.496-.83 1.179-.964v.187c-.429.107-.75.348-.75.63 0 2.229.348 4.457.803 6.418 0 .433.347.866.866.866 5.168-.125 10.335-.25 15.503-.375.587.103 1.174-.141 1.328-.558.154-1.831.308-3.663.462-5.494l-4.042 1.482c-3.551.837-7.275.721-10.739-.348-1.822-.409-3.484-1.087-4.61-1.844m.536-.968V7.781c0-.519.433-.866.866-.866h2.598v5.37l-.173-.087-3.291-.866m13.789-4.403v5.542c-2.771.607-5.543.607-8.314 0V6.929h8.314m5.475 4.403l-3.118.866c-.086 0-.26.087-.346.087v-5.37h2.598c.52 0 .866.433.866.866v3.551" fill="#e2cebd"/><path d="M182.536 5.8c.033-.119.06-.233.078-.342.692.196 1.198.614 1.198 1.114 0 .585-.278 1.15-.714 1.596l1.655.496c.457-.812.755-1.724.755-2.675 0-1.015-1.094-1.871-2.546-2.01-1.737-.132-3.473-.264-5.21-.397-.618.199-1.157.638-1.454 1.157.149.099.297.198.446.298.019.546.037 1.093.056 1.64.313.012.625.025.938.037.018-.255.037-.509.055-.764.019-.308.278-.536.617-.524 1.168.012 2.335.025 3.503.037.082.013.162.035.237.065.075.03.146.069.21.115.065.045.124.098.176.157m-12.833 6.5c0-.655.734-1.23 1.747-1.429v.278c-.636.159-1.112.516-1.112.933 0 2.226.516 4.453 1.191 6.283 0 .401.321.801.801.801 4.783-.185 9.565-.37 14.348-.555.629.152 1.258-.017 1.486-.345.228-1.638.457-3.276.685-4.914l-4.255 1.714c-3.286.71-6.733.538-9.939-.516-2.074-.445-3.91-1.288-4.952-2.25m.794-1.097V7.917c0-.481.401-.802.801-.802h2.405v4.97l-.16-.08-3.046-.802m13.35-4.068v5.13c-2.565.561-5.129.561-7.694 0v-5.13h7.694m5.656 4.068l-2.885.802c-.081 0-.241.08-.321.08v-4.97h2.405c.48 0 .801.401.801.802v3.286" fill="#d4c1b2"/><path d="M206.483 6.048c.03-.19.054-.375.07-.556.961.246 1.665.801 1.665 1.47 0 .686-.389 1.344-1.001 1.835l1.879.695c.639-.871 1.056-1.88 1.056-2.946 0-1.262-1.412-2.34-3.286-2.535-1.564-.185-3.128-.37-4.692-.556-.706.278-1.34.773-1.757 1.34.209.139.417.278.626.417.026.498.052.997.078 1.496.291.017.581.035.872.052.026-.223.052-.447.078-.67.027-.271.269-.471.584-.453 1.061.017 2.122.035 3.183.052.083.017.164.043.241.077.077.033.15.075.218.122.067.047.13.101.186.16M193.544 12.3c0-.918 1.029-1.724 2.447-2.002v.389c-.89.223-1.557.723-1.557 1.307 0 2.224.723 4.448 1.668 6.116 0 .361.289.722.722.722 4.308-.259 8.615-.519 12.923-.778.681.213 1.361.137 1.681-.083.32-1.399.64-2.798.959-4.197l-4.517 2.001c-2.96.553-6.065.312-8.952-.723-2.385-.491-4.436-1.538-5.374-2.752m1.112-1.256v-2.96c0-.433.361-.722.722-.722h2.166v4.476l-.144-.072-2.744-.722m12.809-3.654v4.62c-2.31.506-4.62.506-6.93 0V7.39h6.93m5.879 3.654l-2.599.722c-.072 0-.217.072-.289.072V7.362h2.166c.433 0 .722.361.722.722v2.96" fill="#c2b2a4"/><path d="M230.423 6.326c.026-.269.047-.534.061-.796 1.263.302 2.189 1.011 2.189 1.87 0 .798-.514 1.56-1.322 2.102l2.128.918c.845-.936 1.396-2.056 1.396-3.249 0-1.539-1.769-2.867-4.116-3.124-1.371-.245-2.741-.49-4.112-.735-.804.368-1.545.925-2.096 1.545.275.184.551.367.826.551.035.445.069.89.104 1.334.266.023.533.046.799.069.034-.188.069-.376.103-.564.035-.23.259-.397.546-.374.942.023 1.883.046 2.824.069.085.023.168.054.247.091.079.037.154.081.225.13.071.049.137.104.198.163M217.365 12.3c0-1.212 1.359-2.277 3.233-2.645v.515c-1.176.294-2.057.955-2.057 1.726 0 2.221.955 4.442 2.204 5.929 0 .316.253.632.632.632 3.775-.342 7.551-.685 11.326-1.028.738.281 1.477.31 1.9.212.422-1.131.844-2.263 1.267-3.394l-4.812 2.322c-2.594.377-5.315.059-7.846-.955-2.732-.542-5.024-1.818-5.847-3.314m1.47-1.435V8.271c0-.379.316-.632.632-.632h1.898v3.922l-.126-.063-2.404-.633m12.202-3.19v4.05c-2.025.443-4.049.443-6.074 0v-4.05h6.074m6.128 3.19l-2.277.633c-.064 0-.19.063-.253.063V7.639h1.898c.379 0 .632.316.632.632v2.594" fill="#afa094"/><path d="M254.363 6.607c.023-.35.04-.696.053-1.038 1.566.358 2.716 1.222 2.716 2.272 0 .912-.64 1.779-1.646 2.371l2.38 1.143c1.052-1.002 1.738-2.232 1.738-3.554 0-1.818-2.129-3.398-4.953-3.718l-3.528-.915c-.903.458-1.751 1.078-2.437 1.752.343.229.686.457 1.029.686.043.39.085.781.128 1.171.242.029.484.057.726.086.043-.152.086-.305.129-.457.042-.189.248-.323.508-.294.821.028 1.642.057 2.462.085.087.029.171.064.252.105.081.041.159.087.233.138.074.051.145.107.21.167M241.185 12.3c0-1.509 1.692-2.835 4.024-3.292v.64c-1.463.366-2.56 1.189-2.56 2.149 0 2.218 1.189 4.436 2.743 5.74 0 .271.217.543.543.543 3.238-.427 6.477-.854 9.715-1.281.797.351 1.595.484 2.12.509.526-.861 1.052-1.723 1.578-2.585l-5.109 2.647c-2.225.2-4.559-.196-6.73-1.189-3.083-.593-5.618-2.1-6.324-3.881m1.83-1.615V8.46c0-.325.271-.543.542-.543h1.628v3.366l-.108-.055-2.062-.543m11.59-2.722v3.474c-1.737.38-3.473.38-5.21 0V7.963h5.21m6.38 2.722l-1.953.543c-.055 0-.163.055-.217.055V7.917h1.628c.325 0 .542.272.542.543v2.225" fill="#9b8f85"/><path d="M278.307 6.867c.019-.424.035-.845.045-1.263 1.848.411 3.204 1.418 3.204 2.644 0 1.018-.756 1.982-1.945 2.622l2.613 1.351c1.243-1.063 2.054-2.396 2.054-3.838 0-2.075-2.462-3.888-5.727-4.267-.995-.36-1.991-.72-2.987-1.081-.994.541-1.943 1.219-2.753 1.943.405.271.81.541 1.216.811.05.34.101.68.152 1.02l.657.102c.051-.12.102-.239.152-.358.051-.15.239-.255.474-.221.709.034 1.419.068 2.128.102.087.033.173.073.256.117.083.044.163.093.241.146.077.052.151.109.22.17M265.019 12.3c0-1.784 2-3.351 4.756-3.891v.756c-1.729.433-3.026 1.406-3.026 2.54 0 2.216 1.405 4.431 3.242 5.566 0 .229.184.459.46.459 2.742-.504 5.484-1.009 8.226-1.513.851.414 1.702.645 2.324.783.621-.612 1.243-1.224 1.864-1.836l-5.383 2.946c-1.884.037-3.86-.431-5.698-1.405-3.408-.64-6.168-2.36-6.765-4.405m2.162-1.781V8.635c0-.276.23-.46.459-.46h1.379v2.85l-.092-.046-1.746-.46m11.025-2.29v2.942c-1.471.321-2.941.321-4.412 0V8.229h4.412m6.613 2.29l-1.654.46c-.046 0-.138.046-.184.046v-2.85h1.379c.275 0 .459.23.459.46v1.884" fill="#897f76"/><path d="M302.258 7.095c.017-.489.029-.976.038-1.46 2.095.457 3.633 1.591 3.633 2.972 0 1.11-.859 2.159-2.209 2.84l2.818 1.534c1.412-1.116 2.332-2.54 2.332-4.086 0-2.302-2.754-4.32-6.406-4.75-.838-.409-1.675-.817-2.512-1.227-1.075.614-2.111 1.343-3.032 2.112.461.306.921.613 1.381.92.058.296.115.592.173.888.199.038.398.076.597.115.058-.091.115-.181.173-.272.057-.116.231-.193.443-.155.611.038 1.223.077 1.834.115.088.038.175.081.26.128.085.047.167.098.247.153.08.054.157.112.23.173M288.873 12.3c0-2.025 2.27-3.804 5.399-4.418v.859c-1.963.491-3.436 1.595-3.436 2.884 0 2.213 1.596 4.426 3.682 5.411 0 .194.154.387.386.387 2.306-.573 4.611-1.146 6.917-1.718.899.47 1.798.786 2.503 1.025.706-.393 1.412-.785 2.117-1.178l-5.625 3.209c-1.584-.107-3.246-.638-4.791-1.595-3.693-.681-6.65-2.59-7.152-4.866m2.454-1.927V8.789c0-.232.193-.387.387-.387h1.159v2.396l-.077-.039-1.469-.386m10.528-1.909v2.472c-1.237.271-2.473.271-3.71 0V8.464h3.71m6.818 1.909l-1.391.386c-.039 0-.116.039-.155.039V8.402h1.159c.232 0 .387.193.387.387v1.584" fill="#797069"/><path d="M326.216 7.291c.014-.545.024-1.088.032-1.629 2.307.496 4.002 1.738 4.002 3.252 0 1.191-.947 2.313-2.435 3.03l2.994 1.691c1.555-1.163 2.57-2.664 2.57-4.3 0-2.497-3.006-4.691-6.991-5.164-.701-.452-1.402-.902-2.103-1.353-1.144.676-2.256 1.45-3.27 2.255.507.339 1.014.677 1.522 1.015.063.258.126.516.19.774.182.042.364.085.546.127.063-.066.127-.131.19-.197.064-.087.224-.142.417-.099.527.042 1.054.084 1.582.126.089.043.177.089.263.138.086.05.171.103.253.158.082.056.162.115.238.176M312.747 12.3c0-2.232 2.503-4.194 5.953-4.87v.947c-2.165.541-3.788 1.758-3.788 3.179 0 2.211 1.758 4.422 4.058 5.279 0 .162.13.324.324.324 1.93-.631 3.861-1.263 5.792-1.894.94.519 1.879.908 2.657 1.232l2.334-.612-5.832 3.435c-1.327-.23-2.718-.816-4.013-1.759-3.938-.716-7.064-2.786-7.485-5.261m2.706-2.053V8.92c0-.194.162-.323.323-.323h.971v2.006l-.065-.032-1.229-.324m10.1-1.582v2.07c-1.035.227-2.071.227-3.106 0v-2.07h3.106m6.994 1.582l-1.165.324c-.032 0-.097.032-.129.032V8.597h.971c.194 0 .323.162.323.323v1.327" fill="#6c645e"/><path d="M350.181 7.458c.011-.593.02-1.184.026-1.773 2.488.53 4.316 1.864 4.316 3.492 0 1.258-1.022 2.443-2.628 3.19l3.144 1.825c1.679-1.202 2.774-2.769 2.774-4.482 0-2.663-3.22-5.007-7.489-5.518-.585-.487-1.17-.973-1.755-1.46-1.203.73-2.379 1.541-3.474 2.379.547.365 1.095.73 1.642 1.095.069.226.137.451.206.677.167.045.335.091.502.137.068-.045.137-.089.205-.133.069-.063.218-.098.395-.053.455.046.911.092 1.366.137.09.046.179.095.267.146.087.052.173.107.257.163.084.057.166.117.246.178M336.64 12.3c0-2.409 2.701-4.526 6.424-5.256v1.022c-2.336.584-4.088 1.898-4.088 3.431 0 2.209 1.898 4.418 4.38 5.167 0 .135.108.27.27.27 1.611-.681 3.222-1.363 4.833-2.044.975.56 1.949 1.011 2.789 1.409.839-.043 1.679-.087 2.518-.13l-6.009 3.628c-1.107-.336-2.268-.968-3.348-1.898-4.147-.747-7.418-2.954-7.769-5.599m2.92-2.16V9.033c0-.162.135-.27.27-.27h.81v1.674l-.054-.027-1.026-.27m9.736-1.304v1.728c-.864.189-1.728.189-2.592 0V8.836h2.592m7.144 1.304l-.972.27c-.027 0-.081.027-.108.027V8.763h.81c.162 0 .27.135.27.27v1.107" fill="#605a55"/><path d="M374.15 7.6c.009-.633.017-1.265.022-1.896 2.642.559 4.583 1.972 4.583 3.696 0 1.316-1.085 2.554-2.792 3.327l3.272 1.939c1.784-1.236 2.947-2.859 2.947-4.637 0-2.804-3.402-5.276-7.913-5.819-.486-.517-.972-1.034-1.459-1.551-1.253.776-2.483 1.619-3.647 2.484.582.388 1.164.775 1.745 1.163.073.198.146.396.218.595.155.048.31.096.465.145.073-.026.146-.053.219-.079.072-.041.212-.06.375-.012.394.049.789.097 1.183.146.091.048.18.099.269.153.089.053.176.109.261.167.086.058.17.118.252.179m-13.601 4.7c0-2.559 2.869-4.808 6.825-5.584v1.086c-2.482.62-4.343 2.016-4.343 3.645 0 2.207 2.016 4.415 4.653 5.071 0 .112.09.225.224.225 1.34-.724 2.679-1.448 4.018-2.172 1.004.595 2.008 1.099 2.9 1.559.892.094 1.784.187 2.676.28l-6.16 3.792c-.92-.425-1.885-1.097-2.783-2.016-4.324-.773-7.718-3.097-8.01-5.886m3.102-2.251v-.92c0-.135.112-.225.225-.225h.673v1.392l-.045-.023-.853-.224m9.426-1.067v1.436c-.718.157-1.436.157-2.154 0V8.982h2.154m7.272 1.067l-.808.224c-.023 0-.067.023-.09.023V8.904h.673c.135 0 .225.112.225.225v.92" fill="#56514d"/><path d="M398.124 7.721c.008-.668.014-1.334.018-2 2.773.583 4.812 2.063 4.812 3.87 0 1.365-1.141 2.648-2.932 3.443l3.38 2.036c1.873-1.264 3.095-2.935 3.095-4.769 0-2.925-3.558-5.505-8.274-6.075-.402-.543-.804-1.086-1.207-1.629-1.295.814-2.573 1.684-3.794 2.573.61.407 1.221.815 1.832 1.222.076.174.153.349.229.524.145.05.289.101.433.152.077-.011.153-.022.229-.033.077-.023.209-.028.359.023.343.051.685.102 1.027.153.092.051.182.104.271.159.09.055.178.112.265.171.087.058.173.119.257.18M384.471 12.3c0-2.688 3.014-5.049 7.167-5.864v1.14c-2.606.652-4.561 2.118-4.561 3.828 0 2.206 2.118 4.412 4.887 4.99 0 .093.074.185.185.185 1.108-.759 2.215-1.52 3.322-2.28 1.03.624 2.059 1.174 2.996 1.688.936.21 1.873.42 2.809.629l-6.287 3.932c-.761-.502-1.559-1.207-2.301-2.117-4.477-.795-7.976-3.219-8.217-6.131m3.258-2.329V9.21c0-.111.093-.185.185-.185h.557v1.15l-.037-.018-.705-.186m9.162-.865v1.188c-.594.13-1.188.13-1.782 0V9.106h1.782m7.38.865l-.668.186c-.018 0-.056.018-.074.018v-1.15h.557c.111 0 .185.093.185.185v.761" fill="#4d4946"/><path d="M422.102 7.825c.006-.698.011-1.394.015-2.09 2.885.604 5.006 2.141 5.006 4.018 0 1.407-1.187 2.73-3.052 3.543l3.474 2.119c1.949-1.288 3.221-3 3.221-4.882 0-3.027-3.691-5.701-8.583-6.294-.33-.565-.66-1.13-.991-1.695-1.332.847-2.649 1.741-3.921 2.649l1.908 1.272c.079.154.158.309.238.463.135.053.271.106.406.159.079.003.159.005.238.007.08-.008.205-.001.345.052l.894.159c.092.053.183.108.273.164.09.057.179.115.268.174.088.059.175.12.261.182M408.405 12.3c0-2.797 3.136-5.255 7.459-6.103v1.187c-2.713.678-4.747 2.204-4.747 3.984 0 2.205 2.204 4.41 5.086 4.92 0 .076.061.152.152.152.909-.791 1.819-1.582 2.728-2.373 1.051.649 2.102 1.238 3.077 1.797.974.309 1.949.619 2.924.928l-6.397 4.052c-.625-.567-1.28-1.302-1.89-2.204-4.606-.814-8.194-3.323-8.392-6.34m3.39-2.395V9.28c0-.091.076-.152.153-.152h.457v.944l-.031-.015-.579-.152m8.936-.693v.976c-.487.106-.975.106-1.462 0v-.976h1.462m7.474.693l-.549.152c-.015 0-.046.015-.061.015v-.944h.457c.092 0 .153.076.153.152v.625" fill="#464340"/><path d="M446.083 7.913c.005-.723.009-1.445.012-2.166 2.981.622 5.172 2.208 5.172 4.145 0 1.443-1.226 2.798-3.153 3.628l3.553 2.19c2.014-1.309 3.328-3.056 3.328-4.978 0-3.116-3.804-5.868-8.846-6.482-.269-.584-.538-1.167-.806-1.752-1.364.876-2.715 1.79-4.029 2.715l1.971 1.314c.082.138.164.275.246.412.128.055.255.11.383.165.082.013.164.026.246.04.083.005.202.023.334.077.26.055.519.11.779.165.092.054.184.111.275.168.091.058.181.116.27.176.089.06.178.121.265.183M432.348 12.3c0-2.891 3.241-5.431 7.709-6.307v1.226c-2.804.701-4.906 2.278-4.906 4.117 0 2.205 2.278 4.409 5.256 4.861 0 .062.05.124.124.124.74-.817 1.48-1.635 2.22-2.453 1.07.672 2.139 1.294 3.146 1.891 1.008.395 2.015.789 3.022 1.184l-6.49 4.153c-.509-.623-1.042-1.382-1.538-2.277-4.717-.83-8.382-3.412-8.543-6.519m3.504-2.452V9.34c0-.075.062-.124.124-.124h.372v.768l-.025-.012-.471-.124m8.743-.545v.794c-.397.087-.793.087-1.19 0v-.794h1.19m7.553.545l-.446.124c-.013 0-.038.012-.05.012v-.768h.372c.074 0 .124.062.124.124v.508" fill="#403d3b"/><path d="M470.067 7.989c.004-.745.007-1.488.009-2.232 3.063.638 5.315 2.265 5.315 4.254 0 1.473-1.26 2.857-3.241 3.7l3.621 2.251c2.07-1.327 3.42-3.104 3.42-5.061 0-3.19-3.9-6.011-9.071-6.641-.217-.6-.433-1.2-.649-1.8-1.39.9-2.77 1.83-4.121 2.77.675.45 1.351.9 2.026 1.35.084.123.168.246.253.369.121.056.242.112.363.169.084.023.169.046.253.069.084.016.199.042.323.098.228.057.455.113.682.169.093.056.185.114.276.172.092.059.183.118.273.179.09.06.179.122.268.184M456.3 12.3c0-2.971 3.33-5.581 7.921-6.481v1.26c-2.88.72-5.041 2.34-5.041 4.231 0 2.203 2.341 4.406 5.401 4.809 0 .05.04.1.1.1.596-.84 1.191-1.68 1.787-2.52 1.085.69 2.17 1.34 3.205 1.97 1.036.468 2.071.935 3.106 1.402l-6.571 4.24c-.409-.67-.838-1.45-1.237-2.34-4.811-.843-8.542-3.487-8.671-6.671m3.6-2.5v-.41c0-.06.05-.099.1-.099h.3v.618l-.02-.01-.38-.099m8.579-.419v.638c-.319.07-.639.07-.958 0v-.638h.958m7.621.419l-.36.099c-.01 0-.03.01-.04.01v-.618h.3c.06 0 .1.049.1.099v.41" fill="#3b3837"/><path d="M494.053 8.053c.003-.763.006-1.525.008-2.287 3.132.65 5.435 2.314 5.435 4.346 0 1.499-1.289 2.907-3.315 3.762l3.678 2.302c2.118-1.342 3.499-3.144 3.499-5.131 0-3.254-3.983-6.132-9.263-6.777-.172-.614-.343-1.227-.515-1.841-1.413.921-2.818 1.865-4.199 2.818.691.46 1.381.92 2.072 1.381.086.11.173.22.259.331.115.057.231.115.346.172.086.032.173.063.259.094.086.026.196.06.314.117.2.058.4.115.6.173.093.057.185.116.277.175.092.059.183.12.274.18.091.061.181.123.271.185M480.258 12.3c0-3.039 3.407-5.709 8.103-6.63v1.29c-2.946.736-5.156 2.394-5.156 4.327 0 2.203 2.394 4.405 5.525 4.767 0 .039.031.079.079.079.473-.859.945-1.719 1.418-2.578 1.098.705 2.197 1.38 3.256 2.038l3.177 1.587-6.639 4.315c-.325-.711-.666-1.509-.982-2.394-4.891-.855-8.678-3.552-8.781-6.801m3.684-2.542v-.324c0-.048.039-.08.079-.08h.237v.492l-.015-.008-.301-.08m8.438-.312v.508c-.253.055-.507.055-.76 0v-.508h.76m7.678.312l-.285.08c-.008 0-.024.008-.031.008v-.492h.237c.048 0 .079.04.079.08v.324" fill="#363433"/><path d="M518.041 8.107c.003-.778.005-1.556.006-2.333 3.192.661 5.538 2.354 5.538 4.423 0 1.522-1.313 2.95-3.378 3.815l3.727 2.346c2.158-1.355 3.566-3.179 3.566-5.19 0-3.309-4.053-6.236-9.426-6.893-.134-.626-.267-1.25-.401-1.876-1.432.938-2.858 1.895-4.266 2.858.704.469 1.408.938 2.111 1.407l.264.3c.111.058.222.117.332.175.088.039.176.077.264.115.088.034.194.074.307.132.177.059.353.118.53.176.092.059.185.118.277.178.093.06.185.121.276.182.092.061.183.123.273.185M504.224 12.3c0-3.096 3.471-5.817 8.256-6.755v1.313c-3.002.751-5.254 2.44-5.254 4.41 0 2.202 2.439 4.404 5.629 4.73 0 .03.025.061.062.061.369-.875.737-1.751 1.106-2.627 1.109.719 2.219 1.414 3.298 2.096 1.079.582 2.158 1.163 3.237 1.745l-6.696 4.377c-.253-.745-.519-1.558-.766-2.439-4.959-.865-8.792-3.607-8.872-6.911m3.752-2.576V9.47c0-.037.031-.061.062-.061h.186v.382l-.013-.006-.235-.061m8.32-.222v.396c-.197.043-.395.043-.592 0v-.396h.592m7.728.222l-.223.061c-.006 0-.018.006-.025.006v-.382h.186c.037 0 .062.03.062.061v.254" fill="#323130"/><path d="M542.031 8.153c.002-.791.004-1.582.005-2.373 3.241.67 5.624 2.389 5.624 4.489 0 1.541-1.334 2.986-3.431 3.859l3.769 2.383c2.191-1.366 3.621-3.208 3.621-5.24 0-3.354-4.112-6.323-9.563-6.99-.101-.635-.203-1.27-.305-1.906-1.449.953-2.892 1.92-4.322 2.892.715.477 1.43.953 2.145 1.429.089.091.178.182.268.273.106.06.213.119.319.179.09.044.179.088.268.132.09.04.193.086.301.145.157.06.314.119.471.179.093.06.186.12.278.18.093.061.185.122.277.184.092.061.184.123.275.185M528.194 12.3c0-3.145 3.526-5.908 8.386-6.861v1.334c-3.049.762-5.336 2.478-5.336 4.479 0 2.201 2.477 4.403 5.717 4.699 0 .023.019.047.047.047.281-.89.562-1.78.842-2.669 1.12.731 2.239 1.443 3.335 2.145 1.096.626 2.192 1.251 3.288 1.877l-6.745 4.43c-.193-.774-.395-1.599-.583-2.477-5.017-.874-8.89-3.653-8.951-7.004m3.812-2.606v-.193c0-.028.023-.047.047-.047h.141v.292l-.009-.005-.179-.047m8.22-.145v.302c-.151.032-.301.032-.452 0v-.302h.452m7.768.145l-.169.047c-.005 0-.014.005-.019.005v-.292h.141c.028 0 .047.024.047.047v.193" fill="#2f2e2d"/><path d="M566.023 8.191c.002-.802.003-1.604.004-2.406 3.282.678 5.696 2.418 5.696 4.545 0 1.555-1.352 3.015-3.475 3.895l3.802 2.413c2.22-1.374 3.668-3.231 3.668-5.282 0-3.392-4.161-6.394-9.676-7.07-.076-.644-.151-1.287-.226-1.93-1.462.965-2.92 1.941-4.368 2.92.724.482 1.448.965 2.172 1.447.09.084.18.167.271.251.103.06.206.121.31.181.09.049.181.097.271.146.091.047.192.096.296.157.14.06.281.12.421.181.093.06.186.121.279.182.093.061.186.123.279.184l.276.186M552.17 12.3c0-3.185 3.571-5.984 8.493-6.949v1.351c-3.088.772-5.405 2.509-5.405 4.536 0 2.201 2.51 4.403 5.791 4.673 0 .018.014.035.035.035.208-.9.415-1.802.623-2.702 1.127.739 2.255 1.466 3.365 2.185 1.11.662 2.22 1.324 3.33 1.987l-6.785 4.474c-.143-.798-.293-1.634-.432-2.509-5.064-.88-8.97-3.691-9.015-7.081m3.86-2.63v-.143c0-.021.018-.035.035-.035h.105v.216l-.007-.004-.133-.034m8.137-.081v.222c-.111.025-.223.025-.334 0v-.222h.334m7.803.081l-.126.034c-.003 0-.01.004-.014.004v-.216h.105c.021 0 .035.018.035.035v.143" fill="#2d2c2b"/><path d="M590.017 8.223c.001-.811.001-1.623.002-2.434 3.316.685 5.755 2.442 5.755 4.59 0 1.568-1.366 3.04-3.511 3.926l3.831 2.438c2.243-1.382 3.706-3.252 3.706-5.316 0-3.423-4.201-6.454-9.77-7.137-.054-.65-.107-1.3-.161-1.95-1.473.975-2.943 1.958-4.406 2.943.731.487 1.463.975 2.194 1.463.092.077.183.154.275.232.1.061.201.122.301.183.091.052.183.105.274.158.092.051.191.105.292.165l.381.183c.093.061.186.123.279.184.094.062.187.123.28.185.092.062.185.124.278.187M576.149 12.3c0-3.218 3.609-6.047 8.583-7.022v1.365c-3.121.781-5.462 2.536-5.462 4.584 0 2.201 2.536 4.402 5.852 4.652 0 .013.01.025.025.025.147-.91.295-1.821.442-2.731 1.134.748 2.268 1.486 3.39 2.219 1.121.692 2.243 1.385 3.364 2.077l-6.818 4.511c-.101-.818-.208-1.663-.307-2.536-5.103-.886-9.036-3.722-9.069-7.144m3.902-2.651v-.101c0-.015.012-.025.024-.025h.074v.154l-.004-.003-.094-.025m8.068-.028v.158c-.079.017-.159.017-.238 0v-.158h.238m7.83.028l-.089.025c-.002 0-.007.003-.009.003v-.154h.074c.015 0 .024.013.024.025v.101" fill="#2a2a29"/><path d="M614.011 8.248c.001-.818.001-1.637.002-2.455 3.344.689 5.802 2.461 5.802 4.625 0 1.579-1.377 3.06-3.54 3.951l3.853 2.458c2.262-1.388 3.737-3.267 3.737-5.343 0-3.449-4.233-6.502-9.845-7.191-.036-.656-.072-1.31-.108-1.966-1.482.983-2.962 1.971-4.437 2.961.738.492 1.475.984 2.213 1.475.092.073.184.145.276.218.098.062.197.123.295.184.092.056.184.112.277.168.092.055.189.111.288.173.116.061.232.123.348.184.093.062.187.123.28.185.094.062.187.124.28.186.093.062.186.125.279.187M600.133 12.3c0-3.245 3.639-6.097 8.654-7.08v1.377c-3.147.786-5.507 2.556-5.507 4.621 0 2.201 2.557 4.401 5.9 4.635 0 .009.007.017.017.017.099-.918.198-1.836.298-2.754 1.139.754 2.278 1.502 3.409 2.246 1.131.716 2.262 1.433 3.393 2.15l-6.846 4.54c-.068-.834-.139-1.686-.206-2.557-5.135-.89-9.09-3.748-9.112-7.195m3.934-2.667v-.068c0-.01.008-.017.016-.017h.05v.104l-.003-.002-.063-.017m8.013.014v.106c-.053.012-.107.012-.16 0v-.106h.16m7.853-.014l-.06.017c-.001 0-.005.002-.006.002v-.104h.05c.01 0 .016.009.016.017v.068" fill="#292828"/><path d="M638.007 8.268c0-.824.001-1.648.001-2.472 3.365.693 5.839 2.475 5.839 4.653 0 1.587-1.385 3.075-3.562 3.969l3.871 2.475c2.276-1.393 3.76-3.28 3.76-5.365 0-3.468-4.258-6.539-9.904-7.232-.022-.66-.044-1.319-.067-1.979-1.488.989-2.976 1.982-4.46 2.976.742.495 1.484.989 2.226 1.484.093.069.186.138.279.206.096.062.193.124.289.186.093.058.186.117.279.175.092.058.188.117.285.179.108.061.215.123.323.185.094.062.187.124.281.186.093.062.187.124.28.187.093.062.187.124.28.187M624.121 12.3c0-3.266 3.661-6.136 8.709-7.126V6.56c-3.167.792-5.542 2.573-5.542 4.651 0 2.201 2.573 4.401 5.938 4.622 0 .005.004.01.01.01.062-.923.123-1.847.185-2.771 1.143.759 2.286 1.514 3.425 2.266 1.138.736 2.276 1.472 3.414 2.207l-6.866 4.563c-.042-.847-.087-1.704-.128-2.573-5.16-.894-9.132-3.768-9.145-7.235m3.958-2.679v-.043c0-.006.006-.01.011-.01h.031v.064l-.002-.001-.04-.01m7.971.046v.066c-.033.007-.067.007-.1 0v-.066h.1m7.871-.046l-.038.01c-.001 0-.003.001-.004.001v-.064h.031c.007 0 .011.005.011.01v.043" fill="#272727"/><path d="M662.004 8.282V5.798c3.381.696 5.867 2.486 5.867 4.674 0 1.593-1.392 3.087-3.579 3.983l3.884 2.486c2.287-1.396 3.778-3.289 3.778-5.381 0-3.482-4.277-6.566-9.947-7.262-.012-.663-.025-1.326-.037-1.989-1.494.994-2.987 1.99-4.478 2.987.745.497 1.491.994 2.237 1.492.093.065.186.131.279.197.096.062.191.125.286.187.094.06.187.12.28.181.093.059.188.12.284.182.101.062.202.124.304.186.093.063.187.125.281.187.093.062.187.125.28.187.094.062.187.125.281.187M648.111 12.3c0-3.281 3.679-6.165 8.751-7.159v1.392c-3.182.795-5.569 2.585-5.569 4.673 0 2.2 2.586 4.401 5.966 4.612 0 .003.003.006.006.006.034-.928.067-1.857.101-2.784 1.146.762 2.293 1.522 3.436 2.281 1.144.75 2.287 1.5 3.431 2.249l-6.882 4.58c-.023-.856-.047-1.717-.07-2.586-5.178-.896-9.162-3.782-9.17-7.264m3.978-2.689v-.023c0-.003.003-.006.005-.006h.017v.036l-.001-.001-.021-.006m7.938.071v.036c-.018.004-.036.004-.054 0v-.036h.054m7.884-.071l-.02.006c-.001 0-.002.001-.002.001v-.036h.017c.003 0 .005.003.005.006v.023" fill="#262626"/><path d="M686.002 8.292V5.799c3.392.698 5.886 2.494 5.886 4.689 0 1.597-1.397 3.094-3.592 3.993l3.894 2.494c2.294-1.399 3.79-3.296 3.79-5.392 0-3.493-4.29-6.586-9.977-7.284-.005-.665-.011-1.33-.016-1.995-1.497.997-2.994 1.996-4.491 2.994.749.499 1.497.998 2.245 1.497.093.064.187.128.28.192.095.062.189.124.284.187.093.061.187.123.28.184.094.062.188.123.282.186.098.062.195.124.292.187.093.062.187.124.281.187.093.062.187.125.281.187.093.062.187.125.281.187M672.105 12.3c0-3.292 3.691-6.185 8.778-7.182v1.396c-3.192.798-5.586 2.594-5.586 4.689 0 2.2 2.594 4.4 5.985 4.605 0 .001.001.002.003.002.014-.93.029-1.862.044-2.793 1.148.765 2.296 1.529 3.444 2.292 1.147.759 2.294 1.519 3.441 2.278l-6.892 4.591c-.01-.862-.02-1.726-.03-2.593-5.191-.899-9.184-3.793-9.187-7.285m3.99-2.695v-.01c0-.002.001-.003.003-.003h.007v.016l-.001-.001-.009-.002m7.917.087v.016c-.008.002-.016.002-.024 0v-.016h.024m7.893-.087l-.009.002-.001.001v-.016h.007c.002 0 .003.002.003.003v.01" fill="#262525"/><path d="M710 8.298V5.8c3.398.699 5.897 2.498 5.897 4.697 0 1.599-1.399 3.099-3.598 3.998l3.898 2.499c2.299-1.4 3.798-3.299 3.798-5.398 0-3.498-4.297-6.597-9.994-7.296-.002-.667-.003-1.332-.004-1.999-1.499.999-2.999 1.999-4.498 2.999.75.499 1.499.999 2.249 1.499.093.063.187.125.281.188.094.063.188.125.282.188.093.062.187.124.281.186.093.063.187.125.281.187.095.063.189.125.284.188.094.062.187.125.281.187.094.063.187.125.281.188.094.062.188.125.281.187M696.101 12.3c0-3.298 3.698-6.196 8.795-7.196v1.399c-3.198.8-5.597 2.599-5.597 4.698 0 2.2 2.599 4.4 5.997 4.601.004-.932.007-1.865.011-2.798 1.15.766 2.299 1.532 3.448 2.298 1.15.765 2.299 1.53 3.448 2.295l-6.898 4.598c-.002-.866-.005-1.732-.007-2.599-5.198-.899-9.196-3.798-9.197-7.296m3.998-2.699v-.002-.001h.002v.004l-.002-.001m7.904.097v.004h-.006v-.004h.006m7.898-.097l-.002.001v-.004h.002v.003M734 8.3V5.8c3.4.7 5.9 2.5 5.9 4.7 0 1.6-1.4 3.1-3.6 4l3.9 2.5c2.3-1.4 3.8-3.3 3.8-5.4 0-3.5-4.3-6.6-10-7.3v-2l-4.5 3 2.25 1.5c.094.062.188.125.281.187.094.063.188.125.282.188.093.062.187.125.281.187.094.063.187.125.281.188.094.062.188.125.281.187.094.063.188.125.282.188.093.062.187.125.281.188.094.062.187.125.281.187m-13.9 4c0-3.3 3.7-6.2 8.8-7.2v1.4c-3.2.8-5.6 2.6-5.6 4.7 0 2.2 2.6 4.4 6 4.6V13c1.15.767 2.3 1.533 3.45 2.3 1.15.767 2.3 1.534 3.45 2.3l-6.9 4.6v-2.6c-5.2-.9-9.2-3.8-9.2-7.3m19.8-2.7" fill="#252525"/></svg>